<?xml version="1.0" encoding="UTF-8"?>
<svg width="500px" height="334px" viewBox="0 0 500 334" version="1.1" xmlns="http://www.w3.org/2000/svg" xmlns:xlink="http://www.w3.org/1999/xlink">
    <!-- Generator: Sketch 43.2 (39069) - http://www.bohemiancoding.com/sketch -->
    <title>airtel</title>
    <desc>Created with Sketch.</desc>
    <defs></defs>
    <g id="Page-1" stroke="none" stroke-width="1" fill="none" fill-rule="evenodd">
        <g id="airtel">
            <g id="Слой_1" transform="translate(0.000000, -0.000000)">
                <rect id="Rectangle-path" fill="#E93F33" x="0" y="0" width="500" height="333.333333"></rect>
                <path d="M139.333333,241.666667 C139.333333,241.666667 170,220.833333 183.166667,250 L183.166667,289 C183.166667,289 173.833333,299.833333 157.666667,300.166667 C141.5,300.5 133.666667,288.333333 134,277.833333 C134.333333,267.333333 142.5,257 159.833333,258.333333 L169.166667,258.333333 C169.166667,258.333333 171.333333,247.333333 160,247.5 C148.5,247.666667 146,250.5 144.5,251.833333 L139.333333,241.666667 Z" id="Shape" fill="#FEFAFB"></path>
                <polygon id="Shape" fill="#FEFEFF" points="192.5 300.166667 192.5 238.666667 207.333333 235.5 207.333333 300.166667"></polygon>
                <path d="M199.833333,231.666667 C205.666667,231.666667 208.166667,226.833333 208.166667,223.333333 C208.166667,219.833333 206.833333,214.166667 199.833333,214.166667 C192.833333,214.166667 191.166667,219 191.166667,222.833333 C191.166667,226.666667 192.5,231.666667 199.833333,231.666667 Z" id="Shape" fill="#FFFEFE"></path>
                <path d="M216.333333,300.166667 L216.333333,247.666667 C216.333333,247.666667 219.166667,235 253.166667,235 C253.166667,235 251.5,243.166667 248,247.333333 C248,247.333333 232.666667,247.333333 230.5,250.833333 L230.5,300 L216.333333,300 L216.333333,300.166667 Z" id="Shape" fill="#FAFEFF"></path>
                <path d="M258.666667,220.666667 L258.666667,285.5 C258.666667,285.5 257.5,300.166667 280.833333,300.166667 L280.833333,290 C280.833333,290 271.333333,290.333333 271.333333,285.166667 L271.333333,248 L280.833333,248 L280.833333,237.833333 L271.333333,237.833333 L271.333333,217.666667 L258.666667,220.666667 Z" id="Shape" fill="#FEFEFE"></path>
                <path d="M330.333333,283.666667 L334.833333,292.166667 C334.833333,292.166667 328.5,300.166667 313,300.166667 C297.5,300.166667 284.333333,289.333333 284.333333,268.666667 C284.333333,248 294.833333,235 311,235 C327.166667,235 335,242.333333 335,269.833333 L300.333333,269.833333 C300.333333,269.833333 299.166667,288.833333 314,288.833333 C328.833333,288.833333 330.333333,283.666667 330.333333,283.666667 Z" id="Shape" fill="#FBFBFD"></path>
                <path d="M341.666667,220.666667 L341.666667,285.666667 C341.666667,285.666667 340.166667,300.166667 366.166667,300.166667 L366.166667,290.166667 C366.166667,290.166667 355.333333,291.833333 355.333333,285 L355.333333,217.833333 L341.666667,220.666667 Z" id="Shape" fill="#F9FDFE"></path>
                <path d="M299.833333,258.333333 C299.833333,258.333333 299.833333,246.5 310.333333,246.5 C320.833333,246.5 320.666667,258.333333 320.666667,258.333333 L299.833333,258.333333 Z" id="Shape" fill="#E93F33"></path>
                <path d="M169.666667,269 L169.666667,285.5 C169.666667,285.5 166.666667,289.333333 159.5,289.333333 C152.333333,289.333333 148.5,285.333333 148.5,278.333333 C148.5,271.333333 151,267.833333 169.666667,269 Z" id="Shape" fill="#E93F33"></path>
                <path d="M301,35.6666667 C305.166667,37 312,41.1666667 316,44.8333333 C342.833333,68.3333333 329.333333,116.666667 286.333333,150.5 C264.833333,167.5 244.5,178 232.833333,178 C223,178 215.5,170.166667 215.5,159.666667 C215.5,152.5 222.5,138.166667 229.5,131.5 C239.5,121.666667 257.166667,122.833333 257.166667,133.333333 C257.166667,135.166667 252,142 245.666667,148.5 C231.666667,163.5 229.333333,167.5 232.5,170.833333 C236.333333,174.5 250.333333,168.333333 267.5,155.5 C292.666667,136.5 306.5,117.5 308.333333,99 C310,83.5 302.833333,75.3333333 289.5,76.8333333 C278.666667,78 264.5,86.1666667 221.833333,115.666667 C204.5,127.666667 190.666667,127.333333 183.333333,114.666667 C179.333333,108 179.833333,101.666667 185,91.3333333 C195.666667,70 227.333333,46.3333333 258.833333,36.1666667 C270.5,32.3333333 290.666667,32.1666667 301,35.6666667 Z" id="Shape" fill="#FFFFFF"></path>
            </g>
        </g>
    </g>
</svg>