<?xml version="1.0" encoding="UTF-8"?>
<svg width="500px" height="334px" viewBox="0 0 500 334" version="1.1" xmlns="http://www.w3.org/2000/svg" xmlns:xlink="http://www.w3.org/1999/xlink">
    <!-- Generator: Sketch 43.2 (39069) - http://www.bohemiancoding.com/sketch -->
    <title>glo</title>
    <desc>Created with Sketch.</desc>
    <defs></defs>
    <g id="Page-1" stroke="none" stroke-width="1" fill="none" fill-rule="evenodd">
        <g id="glo">
            <rect id="Rectangle-path" fill="#FFFFFF" x="0" y="0" width="500" height="333.333333"></rect>
            <g id="Слой_1" transform="translate(119.000000, 35.000000)">
                <path d="M262.252841,131.5 C262.252841,203.675568 203.675568,262.252841 131.5,262.252841 C59.3244318,262.252841 0.747159091,203.675568 0.747159091,131.5 C0.747159091,102.659659 10.0119318,76.0607955 25.8517045,54.5426136 C49.6113636,21.9664773 88.1647727,0.747159091 131.5,0.747159091 C163.030114,0.747159091 192.019886,11.9545455 214.584091,30.6335227 C243.723295,54.6920455 262.252841,90.8545455 262.252841,131.5 Z" id="Shape" fill="#5BB000"></path>
                <path d="M26.0011364,54.5426136 C49.7607955,21.9664773 88.1647727,0.747159091 131.5,0.747159091 C163.030114,0.747159091 192.019886,11.9545455 214.584091,30.6335227 C136.132386,21.9664773 105.648295,84.1301136 26.0011364,54.5426136 Z" id="Shape" fill="#C7FFB0"></path>
                <path d="M45.2778409,229.676705 C68.7386364,249.401705 98.4755682,262.252841 131.5,262.252841 C203.675568,262.252841 262.252841,203.675568 262.252841,131.5 C262.252841,101.613636 252.240909,73.96875 235.355114,52.0022727 C235.205682,52.0022727 200.238636,195.008523 45.2778409,229.676705 Z" id="Shape" fill="#64C24A"></path>
                <path d="M56.7840909,115.0625 L56.7840909,149.431818 C56.7840909,149.431818 57.3818182,168.857955 77.1068182,168.857955 C96.8318182,168.857955 96.8318182,152.271023 96.8318182,152.271023 L97.1306818,86.6704545 L107.590909,86.6704545 L107.590909,177.823864 C107.590909,177.823864 109.085227,204.422727 76.2102273,204.422727 L76.2102273,197.25 C76.2102273,197.25 99.3721591,199.939773 95.7857955,169.605114 C95.7857955,169.605114 91.6017045,175.731818 77.1068182,175.731818 C62.6119318,175.731818 44.8295455,170.053409 44.8295455,147.9375 L44.8295455,110.579545 C44.8295455,110.579545 45.2778409,86.6704545 76.2102273,86.6704545 L88.1647727,86.6704545 L88.1647727,92.6477273 L76.2102273,92.6477273 C76.2102273,92.6477273 56.7840909,90.1073864 56.7840909,115.0625 Z" id="Shape" fill="#FFFFFF"></path>
                <polygon id="Shape" fill="#FFFFFF" points="124.028409 64.2556818 124.028409 176.329545 135.982955 176.329545 135.982955 59.7727273"></polygon>
                <path d="M183.651705,84.4289773 C183.651705,84.4289773 216.676136,81.8886364 215.181818,111.476136 L215.181818,146.443182 C215.181818,146.443182 217.572727,175.582386 183.651705,175.582386 C149.730682,175.582386 152.719318,146.144318 152.719318,146.144318 L152.569886,110.878409 C152.569886,111.027841 150.477841,84.4289773 183.651705,84.4289773 Z" id="Shape" fill="#FFFFFF"></path>
                <path d="M182.904545,91.9005682 C182.904545,91.9005682 201.732955,90.7051136 201.732955,112.372727 L201.732955,147.9375 C201.732955,147.9375 203.376705,168.110795 184.697727,168.110795 C166.01875,168.110795 164.375,151.822727 164.375,147.9375 L164.375,109.085227 C164.375,109.085227 165.570455,91.9005682 182.904545,91.9005682 Z" id="Shape" fill="#5BB000"></path>
                <path d="M201.732955,122.982386 C193.065909,135.833523 182.45625,149.282386 169.605114,162.282955 C169.605114,162.282955 173.789205,168.110795 183.950568,168.110795 C194.111932,168.110795 201.732955,163.478409 201.732955,146.144318 L201.732955,122.982386 Z" id="Shape" fill="#64C24A"></path>
            </g>
        </g>
    </g>
</svg>