<?xml version="1.0" encoding="UTF-8"?>
<svg width="500px" height="333px" viewBox="0 0 500 333" version="1.1" xmlns="http://www.w3.org/2000/svg" xmlns:xlink="http://www.w3.org/1999/xlink">
    <!-- Generator: Sketch 43.2 (39069) - http://www.bohemiancoding.com/sketch -->
    <title>gotv</title>
    <desc>Created with Sketch.</desc>
    <defs>
        <linearGradient x1="50%" y1="0%" x2="50%" y2="100%" id="linearGradient-1">
            <stop stop-color="#E2E2E2" offset="0%"></stop>
            <stop stop-color="#FFFFFF" offset="100%"></stop>
        </linearGradient>
        <linearGradient x1="50%" y1="0%" x2="50%" y2="100%" id="linearGradient-2">
            <stop stop-color="#F15056" offset="0%"></stop>
            <stop stop-color="#F15056" offset="45.531808%"></stop>
            <stop stop-color="#EF2F36" offset="46.9991231%"></stop>
            <stop stop-color="#ED2028" offset="100%"></stop>
        </linearGradient>
        <linearGradient x1="50%" y1="0%" x2="50%" y2="100%" id="linearGradient-3">
            <stop stop-color="#F15056" offset="0%"></stop>
            <stop stop-color="#F15056" offset="41.531808%"></stop>
            <stop stop-color="#EF2F36" offset="43.9991231%"></stop>
            <stop stop-color="#ED2028" offset="100%"></stop>
        </linearGradient>
        <linearGradient x1="54.3834504%" y1="-18.6441364%" x2="60.1330205%" y2="100%" id="linearGradient-4">
            <stop stop-color="#39A96E" offset="0%"></stop>
            <stop stop-color="#39A96E" offset="40.6389509%"></stop>
            <stop stop-color="#0E964F" offset="42.4884407%"></stop>
            <stop stop-color="#07944A" offset="100%"></stop>
        </linearGradient>
    </defs>
    <g id="Page-1" stroke="none" stroke-width="1" fill="none" fill-rule="evenodd">
        <g id="gotv">
            <rect id="Rectangle-7" fill="url(#linearGradient-1)" x="0" y="0" width="500" height="333"></rect>
            <path d="M228.070175,199.122807 C251.80873,199.122807 271.052632,186.358995 271.052632,170.614035 C271.052632,154.869075 251.80873,142.105263 228.070175,142.105263 C204.33162,142.105263 185.087719,154.869075 185.087719,170.614035 C185.087719,186.358995 204.33162,199.122807 228.070175,199.122807 Z M227.631579,214.035088 C269.052935,214.035088 302.631579,194.398454 302.631579,170.175439 C302.631579,145.952423 269.052935,126.315789 227.631579,126.315789 C186.210223,126.315789 152.631579,145.952423 152.631579,170.175439 C152.631579,194.398454 186.210223,214.035088 227.631579,214.035088 Z" id="Combined-Shape" fill="url(#linearGradient-2)"></path>
            <path d="M5.26503124,170.18439 C4.82384069,124.570358 82.4580137,126.32474 82.4580137,126.32474 C82.4580137,126.32474 142.98433,126.32474 150.879067,154.394916 C150.879067,154.394916 117.545734,154.394916 117.545734,154.394916 C117.545734,154.394916 108.773804,142.114214 82.4580142,142.114214 C56.1422248,142.114214 38.5983651,153.517726 38.5983651,170.18439 C38.5983651,186.851053 56.6901395,198.007214 80.7036283,197.377369 C94.0914466,197.026222 112.282576,197.377369 121.054505,180.710706 L85.9667862,180.710706 L85.9667862,166.675618 L153.510646,166.675618 C153.510646,219.307193 80.7036277,214.044039 80.7036277,214.044039 C80.7036277,214.044039 5.7062218,215.798421 5.26503124,170.18439 Z" id="Rectangle" fill="url(#linearGradient-3)"></path>
            <path d="M313.157895,131.578947 L342.982456,131.578947 L342.982456,148.245614 L411.403509,148.245614 L444.736842,192.105263 L477.192982,148.245614 L494.736842,148.245614 L451.754386,209.649123 L420.175439,209.649123 L385.964912,159.649123 L342.982456,159.649123 L342.982456,189.369128 C342.982456,193.787016 346.56034,197.368421 350.986867,197.368421 L400.877193,197.368421 L400.877193,209.649123 L329.157705,209.649123 C320.321254,209.649123 313.157895,202.479214 313.157895,193.650269 L313.157895,131.578947 Z" id="Rectangle-6" fill="url(#linearGradient-4)"></path>
        </g>
    </g>
</svg>