<?xml version="1.0" encoding="UTF-8"?>
<svg width="500px" height="333px" viewBox="0 0 500 333" version="1.1" xmlns="http://www.w3.org/2000/svg" xmlns:xlink="http://www.w3.org/1999/xlink">
    <!-- Generator: Sketch 43.2 (39069) - http://www.bohemiancoding.com/sketch -->
    <title>IKEJA</title>
    <desc>Created with Sketch.</desc>
    <defs>
        <linearGradient x1="50%" y1="0%" x2="50%" y2="100%" id="linearGradient-1">
            <stop stop-color="#FFFFFF" offset="0%"></stop>
            <stop stop-color="#FFFFFF" offset="100%"></stop>
        </linearGradient>
    </defs>
    <g id="Page-1" stroke="none" stroke-width="1" fill="none" fill-rule="evenodd">
        <g id="IKEJA">
            <rect id="Rectangle-7-Copy-2" fill="url(#linearGradient-1)" x="0" y="0" width="500" height="333"></rect>
            <g id="Group-2" transform="translate(39.473684, 16.666667)">
                <text id="IKEJA-ELECTRIC" font-family="ArialMT, Arial" font-size="32.5" font-weight="normal" letter-spacing="-0.411392331" fill="#000000">
                    <tspan x="251.754386" y="253.54386">IKEJA</tspan>
                    <tspan x="251.754386" y="289.54386">ELECTRIC</tspan>
                </text>
                <path d="M89.0704731,188.640688 L89.0704731,124.6056 L111.000298,124.6056 C111.000298,124.6056 111.19805,153.547646 111.000298,167.588056 C110.980097,169.02229 117.140649,135.131916 153.982754,135.131916 C168.86121,135.131916 181.175736,143.903846 187.316087,151.798583 C186.786288,151.798583 146.96521,200.044197 146.96521,200.044197 C158.368719,207.061741 181.175736,198.289811 182.930122,196.535425 C179.42135,207.061741 182.052929,212.324898 185.561701,216.710863 C182.052929,219.342442 174.447407,222.851214 160.123105,222.851214 C118.017842,222.851214 111.000298,186.886302 111.000298,186.886302 L111.877491,222.851214 L87.3160872,222.851214 L89.0704731,188.640688 Z M134.684508,161.447705 C123.281,172.851214 131.175736,188.640688 131.175736,188.640688 L159.245912,155.307355 C159.245912,155.307355 146.088016,150.044197 134.684508,161.447705 Z" id="Combined-Shape" fill="#373435"></path>
                <path d="M121.246009,104.104344 L124.468863,96.8529218 C124.468863,96.8529218 113.994587,95.846675 102.714597,87.5872156 C113.994587,92.8243539 129.303145,89.6014995 129.303145,89.6014995 L127.288861,96.8529218 C127.288861,96.8529218 136.957424,98.8672058 151.057412,93.2272107 C136.957424,104.507201 121.246009,104.104344 121.246009,104.104344 Z" id="Rectangle-25-Copy-15" fill="#C03438" transform="translate(126.886004, 95.846675) rotate(-394.000000) translate(-126.886004, -95.846675) "></path>
                <path d="M138.739775,51.3511123 L141.96263,44.09969 C141.96263,44.09969 131.488353,43.0934432 120.208363,34.8339837 C131.488353,40.071122 146.796911,36.8482677 146.796911,36.8482677 L144.782627,44.09969 C144.782627,44.09969 154.45119,46.1139739 168.551178,40.4739788 C154.45119,51.753969 138.739775,51.3511123 138.739775,51.3511123 Z" id="Rectangle-25-Copy-13" fill="#C03438" transform="translate(144.379771, 43.093443) rotate(-472.000000) translate(-144.379771, -43.093443) "></path>
                <path d="M139.260593,81.1819506 L142.483447,73.9305284 C142.483447,73.9305284 132.009171,72.9242815 120.729181,64.6648221 C132.009171,69.9019604 147.317729,66.6791061 147.317729,66.6791061 L145.303445,73.9305284 C145.303445,73.9305284 154.972008,75.9448123 169.071996,70.3048172 C154.972008,81.5848074 139.260593,81.1819506 139.260593,81.1819506 Z" id="Rectangle-25-Copy-14" fill="#C03438" transform="translate(144.900588, 72.924282) rotate(-434.000000) translate(-144.900588, -72.924282) "></path>
                <path d="M116.263456,289.517881 L123.280999,273.728407 C123.280999,273.728407 100.473982,271.537374 75.9125784,253.552969 C100.473982,264.956477 133.807315,257.938934 133.807315,257.938934 L129.42135,273.728407 C129.42135,273.728407 150.473982,278.114372 181.175736,265.83367 C150.473982,290.395074 116.263456,289.517881 116.263456,289.517881 Z" id="Rectangle-25" fill="#C03438"></path>
                <path d="M22.3330356,215.749252 L29.3505795,199.959778 C29.3505795,199.959778 6.54356194,197.768745 -18.0178416,179.78434 C6.54356194,191.187848 39.8768953,184.170305 39.8768953,184.170305 L35.4909304,199.959778 C35.4909304,199.959778 56.5435619,204.345743 87.2453163,192.065041 C56.5435619,216.626445 22.3330356,215.749252 22.3330356,215.749252 Z" id="Rectangle-25-Copy-3" fill="#C03438" transform="translate(34.613737, 197.768745) rotate(71.000000) translate(-34.613737, -197.768745) "></path>
                <path d="M58.2886435,268.208057 L65.3061874,252.418584 C65.3061874,252.418584 42.4991698,250.22755 17.9377663,232.243145 C42.4991698,243.646654 75.8325032,236.62911 75.8325032,236.62911 L71.4465383,252.418584 C71.4465383,252.418584 92.4991698,256.804549 123.200924,244.523847 C92.4991698,269.08525 58.2886435,268.208057 58.2886435,268.208057 Z" id="Rectangle-25-Copy-4" fill="#F4B431" transform="translate(70.569345, 250.227551) rotate(35.000000) translate(-70.569345, -250.227551) "></path>
                <path d="M175.832503,274.348408 L182.850047,258.558935 C182.850047,258.558935 160.043029,256.367901 135.481626,238.383496 C160.043029,249.787005 193.376363,242.769461 193.376363,242.769461 L188.990398,258.558935 C188.990398,258.558935 210.043029,262.9449 240.744784,250.664198 C210.043029,275.225601 175.832503,274.348408 175.832503,274.348408 Z" id="Rectangle-25-Copy-5" fill="#F4B431" transform="translate(188.113205, 256.367901) rotate(-35.000000) translate(-188.113205, -256.367901) "></path>
                <path d="M221.007782,167.30337 L228.025326,151.513897 C228.025326,151.513897 205.218309,149.322863 180.656905,131.338458 C205.218309,142.741967 238.551642,135.724423 238.551642,135.724423 L234.165677,151.513897 C234.165677,151.513897 255.218309,155.899861 285.920063,143.61916 C255.218309,168.180563 221.007782,167.30337 221.007782,167.30337 Z" id="Rectangle-25-Copy-6" fill="#F4B431" transform="translate(233.288484, 149.322863) rotate(-104.000000) translate(-233.288484, -149.322863) "></path>
                <path d="M122.15808,67.1071884 C121.837235,67.6400967 121.498042,68.1607081 121.141377,68.6681481 C117.43021,73.9481504 112.650901,88.3123104 112.650901,88.3123104 C111.73266,90.9030604 108.763711,93.0266529 106.004742,93.0266529 L99.5967889,93.0266529 L92.3179193,93.0266529 C89.5534026,93.0266529 86.6847469,90.8816441 85.9059492,88.2356416 C85.9059492,88.2356416 81.9145674,73.7574448 78.6736174,69.5158703 C75.2905708,65.0883277 73.2809995,59.5553284 73.2809995,53.5529686 C73.2809995,39.0191594 85.0629797,27.2371792 99.5967889,27.2371792 C114.130598,27.2371792 125.912578,39.0191594 125.912578,53.5529686 C125.912578,54.9815786 125.798741,56.3836004 125.579641,57.7504576 C144.98514,52.2765383 159.842188,53.6989447 159.842188,53.6989447 L151.740321,68.9604369 C151.740321,68.9604369 174.338943,72.73707 197.585987,92.3909831 C173.879883,79.3019358 140.138228,83.9771695 140.138228,83.9771695 L145.614927,68.5321077 C145.614927,68.5321077 136.892362,66.0690838 122.15808,67.1071884 Z M122.15808,67.1071884 C123.854774,64.2890662 125.038391,61.127059 125.579641,57.7504576 C115.600585,60.5653581 104.418731,65.203932 93.4359035,72.7974099 C104.480043,69.2512247 114.196653,67.6681112 122.15808,67.1071884 Z" id="Combined-Shape" fill="#F4B431"></path>
                <path d="M215.199417,227.142011 L222.21696,211.352537 C222.21696,211.352537 199.409943,209.161504 174.848539,191.177098 C199.409943,202.580607 232.743276,195.563063 232.743276,195.563063 L228.357311,211.352537 C228.357311,211.352537 249.409943,215.738502 280.111697,203.4578 C249.409943,228.019204 215.199417,227.142011 215.199417,227.142011 Z" id="Rectangle-25-Copy" fill="#C03438" transform="translate(227.480118, 209.161504) rotate(-70.000000) translate(-227.480118, -209.161504) "></path>
                <path d="M191.468055,115.249936 L198.485598,99.4604625 C198.485598,99.4604625 175.678581,97.2694293 151.117177,79.2850239 C175.678581,90.6885327 209.011914,83.6709889 209.011914,83.6709889 L204.625949,99.4604625 C204.625949,99.4604625 225.678581,103.846427 256.380335,91.5657257 C225.678581,116.127129 191.468055,115.249936 191.468055,115.249936 Z" id="Rectangle-25-Copy-2" fill="#C03438" transform="translate(203.748756, 97.269429) rotate(-139.000000) translate(-203.748756, -97.269429) "></path>
                <path d="M120.684056,27.8307996 L123.90691,20.5793773 C123.90691,20.5793773 113.432634,19.5731305 102.152644,11.3136711 C113.432634,16.5508094 128.741192,13.327955 128.741192,13.327955 L126.726908,20.5793773 C126.726908,20.5793773 136.395471,22.5936613 150.495459,16.9536662 C136.395471,28.2336564 120.684056,27.8307996 120.684056,27.8307996 Z" id="Rectangle-25-Copy-8" fill="#C03438" transform="translate(126.324051, 19.573131) rotate(-149.000000) translate(-126.324051, -19.573131) "></path>
                <path d="M91.4524894,19.9817037 L94.6753438,12.7302815 C94.6753438,12.7302815 84.2010671,11.7240346 72.9210769,3.46457521 C84.2010671,8.70171353 99.5096253,5.47885918 99.5096253,5.47885918 L97.4953413,12.7302815 C97.4953413,12.7302815 107.163904,14.7445654 121.263892,9.10457032 C107.163904,20.3845605 91.4524894,19.9817037 91.4524894,19.9817037 Z" id="Rectangle-25-Copy-9" fill="#C03438" transform="translate(97.092485, 11.724035) rotate(-184.000000) translate(-97.092485, -11.724035) "></path>
                <path d="M63.5729801,31.0340943 L66.7958344,23.782672 C66.7958344,23.782672 56.3215578,22.7764252 45.0415676,14.5169658 C56.3215578,19.7541041 71.630116,16.5312497 71.630116,16.5312497 L69.615832,23.782672 C69.615832,23.782672 79.284395,25.796956 93.3843828,20.1569609 C79.284395,31.4369511 63.5729801,31.0340943 63.5729801,31.0340943 Z" id="Rectangle-25-Copy-10" fill="#C03438" transform="translate(69.212975, 22.776425) rotate(-224.000000) translate(-69.212975, -22.776425) "></path>
                <path d="M48.781889,55.5349802 L52.0047433,48.283558 C52.0047433,48.283558 41.5304667,47.2773111 30.2504765,39.0178517 C41.5304667,44.25499 56.8390248,41.0321357 56.8390248,41.0321357 L54.8247409,48.283558 C54.8247409,48.283558 64.4933039,50.2978419 78.5932917,44.6578468 C64.4933039,55.937837 48.781889,55.5349802 48.781889,55.5349802 Z" id="Rectangle-25-Copy-11" fill="#C03438" transform="translate(54.421884, 47.277311) rotate(-259.000000) translate(-54.421884, -47.277311) "></path>
                <path d="M52.0085618,84.5763921 L55.2314161,77.3249698 C55.2314161,77.3249698 44.7571395,76.318723 33.4771493,68.0592635 C44.7571395,73.2964019 60.0656976,70.0735475 60.0656976,70.0735475 L58.0514137,77.3249698 C58.0514137,77.3249698 67.7199767,79.3392538 81.8199645,73.6992587 C67.7199767,84.9792489 52.0085618,84.5763921 52.0085618,84.5763921 Z" id="Rectangle-25-Copy-12" fill="#C03438" transform="translate(57.648557, 76.318723) rotate(-295.000000) translate(-57.648557, -76.318723) "></path>
                <path d="M71.7334276,107.068844 L74.956282,99.8174219 C74.956282,99.8174219 64.4820054,98.811175 53.2020151,90.5517156 C64.4820054,95.7888539 79.7905635,92.5659996 79.7905635,92.5659996 L77.7762795,99.8174219 C77.7762795,99.8174219 87.4448426,101.831706 101.54483,96.1917107 C87.4448426,107.471701 71.7334276,107.068844 71.7334276,107.068844 Z" id="Rectangle-25-Copy-16" fill="#C03438" transform="translate(77.373423, 98.811175) rotate(-691.000000) translate(-77.373423, -98.811175) "></path>
                <rect id="Rectangle-26" fill="#373435" x="88.1932802" y="94.7810388" width="21.9298246" height="5.26315789" rx="2.63157895"></rect>
                <rect id="Rectangle-26-Copy" fill="#373435" x="88.1932802" y="101.798583" width="21.9298246" height="5.26315789" rx="2.63157895"></rect>
                <rect id="Rectangle-26-Copy-2" fill="#373435" x="88.1932802" y="108.816127" width="21.9298246" height="5.26315789" rx="2.63157895"></rect>
                <path d="M93.1490227,117.233476 C92.2213132,116.460385 92.4496092,115.83367 93.6652703,115.83367 L105.939909,115.83367 C107.152734,115.83367 107.381841,116.462072 106.456157,117.233476 L104.552532,118.81983 C103.624822,119.592921 101.886211,120.219635 100.673301,120.219635 L98.9318778,120.219635 C97.7171473,120.219635 95.9783315,119.591233 95.0526471,118.81983 L93.1490227,117.233476 Z" id="Rectangle-26-Copy-3" fill="#373435"></path>
            </g>
        </g>
    </g>
</svg>