<?xml version="1.0" encoding="UTF-8"?>
<svg width="500px" height="333px" viewBox="0 0 500 333" version="1.1" xmlns="http://www.w3.org/2000/svg" xmlns:xlink="http://www.w3.org/1999/xlink">
    <!-- Generator: Sketch 43.2 (39069) - http://www.bohemiancoding.com/sketch -->
    <title>mtn</title>
    <desc>Created with Sketch.</desc>
    <defs></defs>
    <g id="Page-1" stroke="none" stroke-width="1" fill="none" fill-rule="evenodd">
        <g id="mtn">
            <g id="Слой_1">
                <g id="Слой_1_1_">
                    <rect id="Rectangle-path" fill="#FACE33" x="0" y="0" width="500" height="333"></rect>
                    <ellipse id="Oval" fill="#2D77A4" cx="250" cy="166.5" rx="163.833333" ry="67.4325"></ellipse>
                    <polygon id="Shape" fill="#FFFFFF" points="145.166667 200.466 163.333333 132.7005 190 132.7005 190 171.3285 208.333333 132.7005 237.166667 132.7005 220.5 200.6325 200.333333 200.6325 211.166667 158.175 189.666667 200.6325 175.166667 200.6325 175.166667 157.0095 164.666667 200.6325"></polygon>
                    <polygon id="Shape" fill="#FACE33" points="240.166667 132.7005 296.666667 132.7005 291.666667 152.0145 273.833333 152.0145 264.666667 188.6445 243.166667 188.6445 253.166667 151.0155 235.666667 151.0155"></polygon>
                    <polygon id="Shape" fill="#E93F33" points="242.666667 190.143 264.166667 190.143 261.5 200.6325 239.833333 200.6325"></polygon>
                    <polygon id="Shape" fill="#FCFAFA" points="299.333333 132.7005 281.833333 200.6325 299.666667 200.6325 309.666667 163.0035 320.5 200.6325 337.5 200.6325 355 132.7005 337.5 132.7005 327.166667 168.165 317.333333 132.534"></polygon>
                </g>
            </g>
        </g>
    </g>
</svg>