<?xml version="1.0" encoding="UTF-8"?>
<svg width="499px" height="333px" viewBox="0 0 499 333" version="1.1" xmlns="http://www.w3.org/2000/svg" xmlns:xlink="http://www.w3.org/1999/xlink">
    <!-- Generator: Sketch 46.2 (44496) - http://www.bohemiancoding.com/sketch -->
    <title>PHED</title>
    <desc>Created with Sketch.</desc>
    <defs>
        <linearGradient x1="50%" y1="0%" x2="50%" y2="100%" id="linearGradient-1">
            <stop stop-color="#42AA41" offset="0%"></stop>
            <stop stop-color="#009145" offset="100%"></stop>
        </linearGradient>
        <polygon id="path-2" points="0 88 13.6 0 27.2 88 13.6 176"></polygon>
        <linearGradient x1="373.478439%" y1="50%" x2="-266.40292%" y2="50%" id="linearGradient-4">
            <stop stop-color="#42AA41" offset="0%"></stop>
            <stop stop-color="#009145" offset="100%"></stop>
        </linearGradient>
        <polygon id="path-5" points="74.4 13.6 88 -74.4 101.6 13.6 88 101.6"></polygon>
        <linearGradient x1="331.998397%" y1="93.4800193%" x2="-228.672159%" y2="6.8547678%" id="linearGradient-7">
            <stop stop-color="#42AA41" offset="0%"></stop>
            <stop stop-color="#009145" offset="100%"></stop>
        </linearGradient>
        <polygon id="path-8" points="47.3573593 58.4 58.4 -13.0523809 69.4426407 58.4 58.4 129.852381"></polygon>
        <linearGradient x1="-233.228256%" y1="93.5759623%" x2="332.341125%" y2="6.45579747%" id="linearGradient-10">
            <stop stop-color="#42AA41" offset="0%"></stop>
            <stop stop-color="#009145" offset="100%"></stop>
        </linearGradient>
        <polygon id="path-11" points="47.3573593 58.4 58.4 -13.0523809 69.4426407 58.4 58.4 129.852381"></polygon>
        <linearGradient x1="50%" y1="-31.823587%" x2="50%" y2="132.803868%" id="linearGradient-13">
            <stop stop-color="#42AA41" offset="0%"></stop>
            <stop stop-color="#009145" offset="100%"></stop>
        </linearGradient>
        <circle id="path-14" cx="53.6" cy="53.6" r="53.6"></circle>
        <linearGradient x1="25.1653639%" y1="27.7233155%" x2="-2.96587012%" y2="-3.24907516%" id="linearGradient-16">
            <stop stop-color="#A0DD60" stop-opacity="0" offset="0%"></stop>
            <stop stop-color="#A8E364" offset="100%"></stop>
        </linearGradient>
        <radialGradient cx="50%" cy="50%" fx="50%" fy="50%" r="52.6272796%" gradientTransform="translate(0.500000,0.500000),scale(1.000000,0.805153),rotate(90.000000),translate(-0.500000,-0.500000)" id="radialGradient-17">
            <stop stop-color="#2B98D6" offset="0%"></stop>
            <stop stop-color="#2F4099" offset="100%"></stop>
        </radialGradient>
        <path d="M0,38.2063138 C17.1457898,45.8155873 28.9477307,33.0801494 35.4058228,0 C35.4058228,31.9024298 47.2077638,39.5131378 70.8116457,22.8321241 C58.9011788,31.4686794 48.8860225,46.5507241 40.7661768,68.0782582 C40.4766339,68.8459014 41.4342142,62.141047 43.6389178,47.9636947 L35.1024322,51.3255285 L34.3154012,24.2660992 L26.4340456,63.4510369 L34.8982224,60.3914959 C35.5801411,75.0248495 35.5801411,83.525827 34.8982224,85.8944283 C34.7677597,86.3475822 34.573486,87.0321432 34.3154012,87.9481113 C25.3810317,66.5978195 13.9425647,50.0172203 0,38.2063138 Z" id="path-18"></path>
        <radialGradient cx="25.1653639%" cy="27.7233155%" fx="25.1653639%" fy="27.7233155%" r="43.2528253%" id="radialGradient-20">
            <stop stop-color="#46BBE7" stop-opacity="0" offset="0%"></stop>
            <stop stop-color="#3FB9E7" offset="100%"></stop>
        </radialGradient>
        <linearGradient x1="74.6842275%" y1="0%" x2="24.3014059%" y2="100%" id="linearGradient-21">
            <stop stop-color="#2E4BA0" offset="0%"></stop>
            <stop stop-color="#2C79C0" offset="100%"></stop>
        </linearGradient>
        <linearGradient x1="18.0157066%" y1="14.7581079%" x2="74.6842265%" y2="84.3768132%" id="linearGradient-22">
            <stop stop-color="#2E4BA0" offset="0%"></stop>
            <stop stop-color="#2C79C0" offset="100%"></stop>
        </linearGradient>
        <linearGradient x1="50%" y1="0%" x2="50%" y2="100%" id="linearGradient-23">
            <stop stop-color="#51BAE6" offset="0%"></stop>
            <stop stop-color="#2D3795" offset="100%"></stop>
        </linearGradient>
        <linearGradient x1="0%" y1="0%" x2="100%" y2="0%" id="linearGradient-24">
            <stop stop-color="#60BB8D" offset="0%"></stop>
            <stop stop-color="#B2DA86" offset="49.5714374%"></stop>
            <stop stop-color="#70C198" offset="100%"></stop>
        </linearGradient>
    </defs>
    <g id="Page-1" stroke="none" stroke-width="1" fill="none" fill-rule="evenodd">
        <g id="Artboard-Copy" transform="translate(-13000.000000, 0.000000)">
            <g id="PHED" transform="translate(13000.000000, 0.000000)">
                <rect id="Rectangle-Copy" fill="#FFFFFF" x="0" y="0" width="499" height="333"></rect>
                <g id="Group-24" transform="translate(20.000000, 79.000000)">
                    <g id="Group-16">
                        <g id="Group-15">
                            <g id="Group-21" transform="translate(74.400000, 0.000000)">
                                <mask id="mask-3" fill="white">
                                    <use xlink:href="#path-2"></use>
                                </mask>
                                <use id="Rectangle-50" fill="url(#linearGradient-1)" xlink:href="#path-2"></use>
                            </g>
                            <g id="Group-19" transform="translate(0.000000, 74.400000)">
                                <mask id="mask-6" fill="white">
                                    <use xlink:href="#path-5"></use>
                                </mask>
                                <use id="Rectangle-50-Copy" fill="url(#linearGradient-4)" transform="translate(88.000000, 13.600000) rotate(-90.000000) translate(-88.000000, -13.600000) " xlink:href="#path-5"></use>
                            </g>
                            <g id="Group-18" transform="translate(29.600000, 29.600000)">
                                <mask id="mask-9" fill="white">
                                    <use xlink:href="#path-8"></use>
                                </mask>
                                <use id="Rectangle-50-Copy-2" fill="url(#linearGradient-7)" transform="translate(58.400000, 58.400000) rotate(-135.000000) translate(-58.400000, -58.400000) " xlink:href="#path-8"></use>
                            </g>
                            <g id="Group-17" transform="translate(29.600000, 29.600000)">
                                <mask id="mask-12" fill="white">
                                    <use xlink:href="#path-11"></use>
                                </mask>
                                <use id="Rectangle-50-Copy-3" fill="url(#linearGradient-10)" transform="translate(58.400000, 58.400000) rotate(-225.000000) translate(-58.400000, -58.400000) " xlink:href="#path-11"></use>
                            </g>
                            <g id="Group-22" transform="translate(34.400000, 34.400000)">
                                <mask id="mask-15" fill="white">
                                    <use xlink:href="#path-14"></use>
                                </mask>
                                <use id="Oval-23" fill="url(#linearGradient-13)" xlink:href="#path-14"></use>
                                <circle id="Oval-26" fill="url(#linearGradient-16)" mask="url(#mask-15)" cx="144.8" cy="132" r="120"></circle>
                            </g>
                            <circle id="Path" fill="#FFFFFF" cx="88" cy="88" r="43.2"></circle>
                        </g>
                    </g>
                    <g id="Group-23" transform="translate(52.800000, 44.000000)">
                        <mask id="mask-19" fill="white">
                            <use xlink:href="#path-18"></use>
                        </mask>
                        <use id="Rectangle-51" fill="url(#radialGradient-17)" xlink:href="#path-18"></use>
                        <circle id="Oval-26" fill="url(#radialGradient-20)" mask="url(#mask-19)" cx="126.4" cy="122.4" r="120"></circle>
                    </g>
                    <circle id="Oval-25" fill="url(#linearGradient-21)" cx="102" cy="66.8" r="6"></circle>
                    <circle id="Oval-25-Copy" fill="url(#linearGradient-22)" cx="69.2" cy="72.4" r="6"></circle>
                </g>
                <g id="Group-13" transform="translate(209.000000, 130.000000)">
                    <path d="M17.6491058,13.7888889 L49.3216655,13.7888889 C53.3929245,14.1101167 55.4285539,16.2730797 55.4285539,20.2777778 C55.4285539,24.2824759 53.3929245,26.4454389 49.3216655,26.7666667 L17.6491058,26.7666667 L17.6491058,13.7888889 Z M0.594650602,0 L49.2285612,0 C64.5926512,0.793983426 72.2746962,7.51998854 72.2746962,20.1780153 C72.2746962,32.8360421 64.5926512,39.2933087 49.2285612,39.549815 L18.0155664,39.549815 L18.0155664,54.3444444 L0.594650602,54.3444444 L0.594650602,0 Z" id="Rectangle-48" fill="url(#linearGradient-23)"></path>
                    <polygon id="Rectangle-47" fill="url(#linearGradient-23)" points="80.1821083 0 96.9581354 0 96.9581354 18.4896542 128.421587 18.4896542 128.421587 0 145.963578 0 145.963578 54.3444444 128.421587 54.3444444 128.421587 32.5732914 96.9581354 32.5732914 96.9581354 54.3444444 80.1821083 54.3444444"></polygon>
                    <path d="M206.932359,13.4203775 L206.932359,1.5363337e-13 C225.449032,1.38266939e-13 236.411923,1.38266939e-13 239.821033,1.5363337e-13 C246.733172,1.42108547e-13 268.658888,3.25580205 268.658888,27.1722222 C268.658888,51.0886424 250.682261,54.3444444 239.821033,54.3444444 C231.500016,54.3444444 220.537125,54.3444444 206.932359,54.3444444 L206.932359,40.5555556 L162.205917,40.5555556 L162.205917,32.3087245 L206.932359,32.3087245 L206.932359,21.8457513 L162.205917,21.8457513 L162.205917,13.4203775 L206.932359,13.4203775 Z" id="Rectangle-49" fill="url(#linearGradient-23)"></path>
                    <path d="M0.594650602,59.2111111 L269.405349,59.2111111" id="Line-3" stroke="url(#linearGradient-24)" stroke-width="1.625" stroke-linecap="square"></path>
                    <path d="M0.594650602,65.8168349 L3.51914393,65.8168349 C4.96969263,65.8168349 5.95232239,66.7561871 5.95232239,68.2049393 C5.95232239,69.6443447 4.91822154,70.5836969 3.41620177,70.5836969 L2.31191309,70.5836969 L2.31191309,72.5605426 L0.594650602,72.5605426 L0.594650602,65.8168349 Z M2.31191309,67.1300586 L2.31191309,69.2938401 L3.05590419,69.2938401 C3.78585773,69.2938401 4.21634314,68.9152952 4.21634314,68.2096127 C4.21634314,67.5086035 3.78585773,67.1300586 3.06526257,67.1300586 L2.31191309,67.1300586 Z M10.0030778,65.7 C12.0478836,65.7 13.3346606,67.0412641 13.3346606,69.1910254 C13.3346606,71.3407868 12.0478836,72.6773775 10.0030778,72.6773775 C7.9535929,72.6773775 6.66681583,71.3407868 6.66681583,69.1910254 C6.66681583,67.0412641 7.95827209,65.7 10.0030778,65.7 Z M10.0030778,67.0926715 C9.04384401,67.0926715 8.41683264,67.905842 8.41683264,69.1910254 C8.41683264,70.4715355 9.03916482,71.284706 10.0030778,71.284706 C10.9623116,71.284706 11.589323,70.4715355 11.589323,69.1910254 C11.589323,67.905842 10.9623116,67.0926715 10.0030778,67.0926715 Z M16.0284512,67.111365 L16.0284512,69.0274567 L17.0344769,69.0274567 C17.6661674,69.0274567 18.0405026,68.6582585 18.0405026,68.0740842 C18.0405026,67.4992568 17.6427715,67.111365 17.0297977,67.111365 L16.0284512,67.111365 Z M16.0284512,70.2004786 L16.0284512,72.5605426 L14.3111887,72.5605426 L14.3111887,65.8168349 L17.2029277,65.8168349 C18.8874358,65.8168349 19.7951986,66.648699 19.7951986,68.0413705 C19.7951986,68.8685612 19.3787507,69.6256511 18.6394388,69.9481153 L19.9917245,72.5605426 L18.0638985,72.5605426 L16.9034596,70.2004786 L16.0284512,70.2004786 Z M24.0705551,72.5605426 L24.0705551,67.2001595 L25.9328725,67.2001595 L25.9328725,65.8168349 L20.4956545,65.8168349 L20.4956545,67.2001595 L22.3579718,67.2001595 L22.3579718,72.5605426 L24.0705551,72.5605426 Z M34.9140709,72.5605426 L34.9140709,65.8168349 L33.2014876,65.8168349 L33.2014876,68.461976 L30.5109538,68.461976 L30.5109538,65.8168349 L28.7936913,65.8168349 L28.7936913,72.5605426 L30.5109538,72.5605426 L30.5109538,69.8453006 L33.2014876,69.8453006 L33.2014876,72.5605426 L34.9140709,72.5605426 Z M40.5183172,72.5605426 L40.092511,71.0790767 L37.8839336,71.0790767 L37.4534482,72.5605426 L35.7034314,72.5605426 L37.9728382,65.8168349 L40.0737942,65.8168349 L42.3432011,72.5605426 L40.5183172,72.5605426 Z M38.9695056,67.2468935 L38.2161561,69.8453006 L39.7556094,69.8453006 L39.0069391,67.2468935 L38.9695056,67.2468935 Z M44.8451448,67.111365 L44.8451448,69.0274567 L45.8511706,69.0274567 C46.4828611,69.0274567 46.8571963,68.6582585 46.8571963,68.0740842 C46.8571963,67.4992568 46.4594652,67.111365 45.8464914,67.111365 L44.8451448,67.111365 Z M44.8451448,70.2004786 L44.8451448,72.5605426 L43.1278824,72.5605426 L43.1278824,65.8168349 L46.0196214,65.8168349 C47.7041295,65.8168349 48.6118923,66.648699 48.6118923,68.0413705 C48.6118923,68.8685612 48.1954444,69.6256511 47.4561325,69.9481153 L48.8084182,72.5605426 L46.8805922,72.5605426 L45.7201532,70.2004786 L44.8451448,70.2004786 Z M52.7000812,72.6773775 C54.4407396,72.6773775 55.685404,71.6211904 55.7649502,70.0182162 L54.1131964,70.0182162 C54.005575,70.8080198 53.4581099,71.3033996 52.7047604,71.3033996 C51.7595642,71.3033996 51.1699863,70.5042492 51.1699863,69.1816787 C51.1699863,67.8731283 51.7642433,67.0739779 52.7000812,67.0739779 C53.4534307,67.0739779 54.0196126,67.597398 54.103838,68.391875 L55.7555918,68.391875 C55.7041208,66.7982476 54.4079853,65.7 52.7000812,65.7 C50.6880298,65.7 49.4199695,66.9851834 49.4199695,69.1863521 C49.4199695,71.3921941 50.6786714,72.6773775 52.7000812,72.6773775 Z M59.8578184,65.7 C61.9026241,65.7 63.1894012,67.0412641 63.1894012,69.1910254 C63.1894012,71.3407868 61.9026241,72.6773775 59.8578184,72.6773775 C57.8083334,72.6773775 56.5215564,71.3407868 56.5215564,69.1910254 C56.5215564,67.0412641 57.8130126,65.7 59.8578184,65.7 Z M59.8578184,67.0926715 C58.8985846,67.0926715 58.2715732,67.905842 58.2715732,69.1910254 C58.2715732,70.4715355 58.8939054,71.284706 59.8578184,71.284706 C60.8170522,71.284706 61.4440636,70.4715355 61.4440636,69.1910254 C61.4440636,67.905842 60.8170522,67.0926715 59.8578184,67.0926715 Z M65.8831917,65.8168349 L64.1659292,65.8168349 L64.1659292,70.1677648 C64.1659292,71.6819445 65.3170098,72.6773775 67.076385,72.6773775 C68.831081,72.6773775 69.9821616,71.6819445 69.9821616,70.1677648 L69.9821616,65.8168349 L68.2648991,65.8168349 L68.2648991,69.9855025 C68.2648991,70.7706327 67.8390928,71.2379721 67.076385,71.2379721 C66.3089979,71.2379721 65.8831917,70.7706327 65.8831917,69.9855025 L65.8831917,65.8168349 Z M72.8584405,67.111365 L72.8584405,69.0274567 L73.8644662,69.0274567 C74.4961567,69.0274567 74.8704919,68.6582585 74.8704919,68.0740842 C74.8704919,67.4992568 74.4727608,67.111365 73.859787,67.111365 L72.8584405,67.111365 Z M72.8584405,70.2004786 L72.8584405,72.5605426 L71.141178,72.5605426 L71.141178,65.8168349 L74.032917,65.8168349 C75.7174252,65.8168349 76.6251879,66.648699 76.6251879,68.0413705 C76.6251879,68.8685612 76.20874,69.6256511 75.4694281,69.9481153 L76.8217138,72.5605426 L74.8938878,72.5605426 L73.7334489,70.2004786 L72.8584405,70.2004786 Z M80.9005444,72.5605426 L80.9005444,67.2001595 L82.7628618,67.2001595 L82.7628618,65.8168349 L77.3256438,65.8168349 L77.3256438,67.2001595 L79.1879611,67.2001595 L79.1879611,72.5605426 L80.9005444,72.5605426 Z M90.2513989,71.177218 L87.3409431,71.177218 L87.3409431,69.8032401 L90.0782688,69.8032401 L90.0782688,68.5414237 L87.3409431,68.5414237 L87.3409431,67.2001595 L90.2513989,67.2001595 L90.2513989,65.8168349 L85.6236806,65.8168349 L85.6236806,72.5605426 L90.2513989,72.5605426 L90.2513989,71.177218 Z M95.8696827,71.177218 L93.0762067,71.177218 L93.0762067,65.8168349 L91.3589442,65.8168349 L91.3589442,72.5605426 L95.8696827,72.5605426 L95.8696827,71.177218 Z M101.422458,71.177218 L98.5120022,71.177218 L98.5120022,69.8032401 L101.249328,69.8032401 L101.249328,68.5414237 L98.5120022,68.5414237 L98.5120022,67.2001595 L101.422458,67.2001595 L101.422458,65.8168349 L96.7947397,65.8168349 L96.7947397,72.5605426 L101.422458,72.5605426 L101.422458,71.177218 Z M105.622947,72.6773775 C107.363606,72.6773775 108.60827,71.6211904 108.687816,70.0182162 L107.036063,70.0182162 C106.928441,70.8080198 106.380976,71.3033996 105.627627,71.3033996 C104.68243,71.3033996 104.092853,70.5042492 104.092853,69.1816787 C104.092853,67.8731283 104.68711,67.0739779 105.622947,67.0739779 C106.376297,67.0739779 106.942479,67.597398 107.026704,68.391875 L108.678458,68.391875 C108.626987,66.7982476 107.330852,65.7 105.622947,65.7 C103.610896,65.7 102.342836,66.9851834 102.342836,69.1863521 C102.342836,71.3921941 103.601538,72.6773775 105.622947,72.6773775 Z M112.761968,72.5605426 L112.761968,67.2001595 L114.624285,67.2001595 L114.624285,65.8168349 L109.187067,65.8168349 L109.187067,67.2001595 L111.049385,67.2001595 L111.049385,72.5605426 L112.761968,72.5605426 Z M117.205775,67.111365 L117.205775,69.0274567 L118.211801,69.0274567 C118.843491,69.0274567 119.217827,68.6582585 119.217827,68.0740842 C119.217827,67.4992568 118.820095,67.111365 118.207122,67.111365 L117.205775,67.111365 Z M117.205775,70.2004786 L117.205775,72.5605426 L115.488513,72.5605426 L115.488513,65.8168349 L118.380252,65.8168349 C120.06476,65.8168349 120.972523,66.648699 120.972523,68.0413705 C120.972523,68.8685612 120.556075,69.6256511 119.816763,69.9481153 L121.169049,72.5605426 L119.241223,72.5605426 L118.080784,70.2004786 L117.205775,70.2004786 Z M123.68503,72.5605426 L123.68503,65.8168349 L121.967767,65.8168349 L121.967767,72.5605426 L123.68503,72.5605426 Z M127.93699,72.6773775 C129.677649,72.6773775 130.922313,71.6211904 131.001859,70.0182162 L129.350106,70.0182162 C129.242484,70.8080198 128.695019,71.3033996 127.94167,71.3033996 C126.996473,71.3033996 126.406896,70.5042492 126.406896,69.1816787 C126.406896,67.8731283 127.001153,67.0739779 127.93699,67.0739779 C128.69034,67.0739779 129.256522,67.597398 129.340747,68.391875 L130.992501,68.391875 C130.94103,66.7982476 129.644895,65.7 127.93699,65.7 C125.924939,65.7 124.656879,66.9851834 124.656879,69.1863521 C124.656879,71.3921941 125.915581,72.6773775 127.93699,72.6773775 Z M133.662896,72.5605426 L133.662896,65.8168349 L131.945633,65.8168349 L131.945633,72.5605426 L133.662896,72.5605426 Z M138.102024,72.5605426 L138.102024,67.2001595 L139.964341,67.2001595 L139.964341,65.8168349 L134.527123,65.8168349 L134.527123,67.2001595 L136.389441,67.2001595 L136.389441,72.5605426 L138.102024,72.5605426 Z M144.497053,72.5605426 L144.497053,70.2425391 L146.82261,65.8168349 L145.011764,65.8168349 L143.673516,68.6208714 L143.640761,68.6208714 L142.297834,65.8168349 L140.454234,65.8168349 L142.779791,70.2425391 L142.779791,72.5605426 L144.497053,72.5605426 Z M149.603883,65.8168349 L152.345888,65.8168349 C154.386014,65.8168349 155.583887,66.9992036 155.583887,69.1489649 C155.583887,71.3033996 154.381335,72.5605426 152.345888,72.5605426 L149.603883,72.5605426 L149.603883,65.8168349 Z M151.321145,67.2001595 L151.321145,71.177218 L152.121287,71.177218 C153.239613,71.177218 153.838549,70.4995758 153.838549,69.1536383 C153.838549,67.8871485 153.206859,67.2001595 152.121287,67.2001595 L151.321145,67.2001595 Z M158.272998,72.5605426 L158.272998,65.8168349 L156.555736,65.8168349 L156.555736,72.5605426 L158.272998,72.5605426 Z M159.216772,70.6070639 C159.235489,71.9156142 160.297665,72.6773775 162.019606,72.6773775 C163.760265,72.6773775 164.869233,71.8221464 164.869233,70.4808822 C164.869233,69.4153484 164.270296,68.8124805 162.936727,68.5554438 L162.061719,68.391875 C161.355161,68.2469998 161.055693,68.0460439 161.055693,67.6815191 C161.055693,67.2702604 161.453424,66.9992036 162.052361,66.9992036 C162.670014,66.9992036 163.123895,67.2936274 163.156649,67.7843338 L164.738215,67.7843338 C164.719499,66.517844 163.722831,65.7 162.033644,65.7 C160.470795,65.7 159.347789,66.541211 159.347789,67.8497613 C159.347789,68.8732346 159.988838,69.5462034 161.233502,69.7845465 L162.117869,69.9574621 C162.885256,70.1163575 163.170687,70.2986199 163.170687,70.6724914 C163.170687,71.0790767 162.735522,71.3781739 162.066398,71.3781739 C161.430028,71.3781739 160.910638,71.0697299 160.849809,70.6070639 L159.216772,70.6070639 Z M169.093118,72.5605426 L169.093118,67.2001595 L170.955435,67.2001595 L170.955435,65.8168349 L165.518217,65.8168349 L165.518217,67.2001595 L167.380535,67.2001595 L167.380535,72.5605426 L169.093118,72.5605426 Z M173.536925,67.111365 L173.536925,69.0274567 L174.542951,69.0274567 C175.174642,69.0274567 175.548977,68.6582585 175.548977,68.0740842 C175.548977,67.4992568 175.151246,67.111365 174.538272,67.111365 L173.536925,67.111365 Z M173.536925,70.2004786 L173.536925,72.5605426 L171.819663,72.5605426 L171.819663,65.8168349 L174.711402,65.8168349 C176.39591,65.8168349 177.303673,66.648699 177.303673,68.0413705 C177.303673,68.8685612 176.887225,69.6256511 176.147913,69.9481153 L177.500199,72.5605426 L175.572373,72.5605426 L174.411934,70.2004786 L173.536925,70.2004786 Z M180.01618,72.5605426 L180.01618,65.8168349 L178.298918,65.8168349 L178.298918,72.5605426 L180.01618,72.5605426 Z M184.399158,72.5605426 L181.175197,72.5605426 L181.175197,65.8168349 L184.314933,65.8168349 C185.643822,65.8168349 186.443964,66.4570899 186.443964,67.4992568 C186.443964,68.2563466 185.873103,68.8592145 185.124432,68.9620291 L185.124432,68.9994163 C186.036874,69.0414768 186.757469,69.719119 186.757469,70.6164107 C186.757469,71.7987794 185.845027,72.5605426 184.399158,72.5605426 Z M182.892459,67.0319173 L182.892459,68.5647906 L183.776826,68.5647906 C184.399158,68.5647906 184.773493,68.2703668 184.773493,67.7843338 C184.773493,67.312321 184.436591,67.0319173 183.861051,67.0319173 L182.892459,67.0319173 Z M182.892459,71.3454602 L183.912522,71.3454602 C184.61908,71.3454602 185.012132,71.0370161 185.012132,70.4668621 C185.012132,69.9154015 184.609721,69.6069575 183.903164,69.6069575 L182.892459,69.6069575 L182.892459,71.3454602 Z M189.338959,65.8168349 L187.621697,65.8168349 L187.621697,70.1677648 C187.621697,71.6819445 188.772777,72.6773775 190.532153,72.6773775 C192.286849,72.6773775 193.437929,71.6819445 193.437929,70.1677648 L193.437929,65.8168349 L191.720667,65.8168349 L191.720667,69.9855025 C191.720667,70.7706327 191.294861,71.2379721 190.532153,71.2379721 C189.764766,71.2379721 189.338959,70.7706327 189.338959,69.9855025 L189.338959,65.8168349 Z M197.877057,72.5605426 L197.877057,67.2001595 L199.739375,67.2001595 L199.739375,65.8168349 L194.302157,65.8168349 L194.302157,67.2001595 L196.164474,67.2001595 L196.164474,72.5605426 L197.877057,72.5605426 Z M202.320865,72.5605426 L202.320865,65.8168349 L200.603602,65.8168349 L200.603602,72.5605426 L202.320865,72.5605426 Z M206.628976,65.7 C208.673781,65.7 209.960558,67.0412641 209.960558,69.1910254 C209.960558,71.3407868 208.673781,72.6773775 206.628976,72.6773775 C204.579491,72.6773775 203.292714,71.3407868 203.292714,69.1910254 C203.292714,67.0412641 204.58417,65.7 206.628976,65.7 Z M206.628976,67.0926715 C205.669742,67.0926715 205.04273,67.905842 205.04273,69.1910254 C205.04273,70.4715355 205.665063,71.284706 206.628976,71.284706 C207.588209,71.284706 208.215221,70.4715355 208.215221,69.1910254 C208.215221,67.905842 207.588209,67.0926715 206.628976,67.0926715 Z M212.565444,72.5605426 L212.565444,68.6021778 L212.602878,68.6021778 L215.480579,72.5605426 L216.837544,72.5605426 L216.837544,65.8168349 L215.209186,65.8168349 L215.209186,69.7378126 L215.171753,69.7378126 L212.308089,65.8168349 L210.937086,65.8168349 L210.937086,72.5605426 L212.565444,72.5605426 Z M223.086096,72.6773775 C224.826755,72.6773775 226.071419,71.6211904 226.150965,70.0182162 L224.499211,70.0182162 C224.39159,70.8080198 223.844125,71.3033996 223.090775,71.3033996 C222.145579,71.3033996 221.556001,70.5042492 221.556001,69.1816787 C221.556001,67.8731283 222.150258,67.0739779 223.086096,67.0739779 C223.839446,67.0739779 224.405627,67.597398 224.489853,68.391875 L226.141607,68.391875 C226.090136,66.7982476 224.794,65.7 223.086096,65.7 C221.074045,65.7 219.805984,66.9851834 219.805984,69.1863521 C219.805984,71.3921941 221.064686,72.6773775 223.086096,72.6773775 Z M230.243833,65.7 C232.288639,65.7 233.575416,67.0412641 233.575416,69.1910254 C233.575416,71.3407868 232.288639,72.6773775 230.243833,72.6773775 C228.194348,72.6773775 226.907571,71.3407868 226.907571,69.1910254 C226.907571,67.0412641 228.199028,65.7 230.243833,65.7 Z M230.243833,67.0926715 C229.284599,67.0926715 228.657588,67.905842 228.657588,69.1910254 C228.657588,70.4715355 229.27992,71.284706 230.243833,71.284706 C231.203067,71.284706 231.830078,70.4715355 231.830078,69.1910254 C231.830078,67.905842 231.203067,67.0926715 230.243833,67.0926715 Z M241.96378,72.5605426 L241.96378,65.8168349 L239.979804,65.8168349 L238.276579,70.1490713 L238.239145,70.1490713 L236.53592,65.8168349 L234.551944,65.8168349 L234.551944,72.5605426 L236.063322,72.5605426 L236.063322,68.3498145 L236.100756,68.3498145 L237.766547,72.4904417 L238.749177,72.4904417 L240.419648,68.3498145 L240.452402,68.3498145 L240.452402,72.5605426 L241.96378,72.5605426 Z M243.122796,65.8168349 L246.04729,65.8168349 C247.497838,65.8168349 248.480468,66.7561871 248.480468,68.2049393 C248.480468,69.6443447 247.446367,70.5836969 245.944348,70.5836969 L244.840059,70.5836969 L244.840059,72.5605426 L243.122796,72.5605426 L243.122796,65.8168349 Z M244.840059,67.1300586 L244.840059,69.2938401 L245.58405,69.2938401 C246.314004,69.2938401 246.744489,68.9152952 246.744489,68.2096127 C246.744489,67.5086035 246.314004,67.1300586 245.593408,67.1300586 L244.840059,67.1300586 Z M253.13016,72.5605426 L252.704354,71.0790767 L250.495776,71.0790767 L250.065291,72.5605426 L248.315274,72.5605426 L250.584681,65.8168349 L252.685637,65.8168349 L254.955044,72.5605426 L253.13016,72.5605426 Z M251.581348,67.2468935 L250.827999,69.8453006 L252.367452,69.8453006 L251.618782,67.2468935 L251.581348,67.2468935 Z M257.368083,72.5605426 L257.368083,68.6021778 L257.405516,68.6021778 L260.283218,72.5605426 L261.640183,72.5605426 L261.640183,65.8168349 L260.011825,65.8168349 L260.011825,69.7378126 L259.974391,69.7378126 L257.110727,65.8168349 L255.739725,65.8168349 L255.739725,72.5605426 L257.368083,72.5605426 Z M266.467684,72.5605426 L266.467684,70.2425391 L268.793241,65.8168349 L266.982394,65.8168349 L265.644146,68.6208714 L265.611392,68.6208714 L264.268465,65.8168349 L262.424864,65.8168349 L264.750421,70.2425391 L264.750421,72.5605426 L266.467684,72.5605426 Z" id="PORT-HARCOURT-ELECTR" fill="url(#linearGradient-23)"></path>
                </g>
            </g>
        </g>
    </g>
</svg>