<svg xmlns="http://www.w3.org/2000/svg" xmlns:xlink="http://www.w3.org/1999/xlink" width="330" height="220" viewBox="0 0 330 220">
  <defs>
    <linearGradient id="kv插画复制-3-a" x1="0%" x2="100%" y1=".456%" y2="99.544%">
      <stop offset="0%" stop-color="#FFF" stop-opacity="0"/>
      <stop offset="100%" stop-color="#FFF" stop-opacity=".2"/>
    </linearGradient>
    <linearGradient id="kv插画复制-3-b" x1="50%" x2="50%" y1="0%" y2="100%">
      <stop offset="0%" stop-color="#FFF"/>
      <stop offset="100%" stop-color="#A9D6FF"/>
    </linearGradient>
    <path id="kv插画复制-3-c" d="M16.8700823,1.13860251 C17.6331323,0.738775352 18.5048731,0.595971892 19.3556117,0.731437686 C21.5372689,1.07882989 23.0242346,3.12902957 22.6768364,5.3106859 C21.8739983,10.3525887 19.7705383,13.7554017 16.3664566,15.5191247 C13.0025348,17.2620402 8.39127956,16.9470579 2.53269093,14.5741778 C1.47046256,14.1439479 0.643794982,13.2787613 0.262353887,12.1980534 C-0.472918546,10.1148621 0.619785558,7.83004587 2.70297903,7.09477972 L11.2814392,4.0669707 L16.8700823,1.13860251 Z"/>
    <linearGradient id="kv插画复制-3-e" x1="50%" x2="50%" y1="0%" y2="100%">
      <stop offset="0%" stop-color="#BDEBFF"/>
      <stop offset="100%" stop-color="#67B6FF"/>
    </linearGradient>
    <linearGradient id="kv插画复制-3-f" x1="50%" x2="50%" y1="0%" y2="100%">
      <stop offset="0%" stop-color="#FFF"/>
      <stop offset="100%" stop-color="#A9D6FF"/>
    </linearGradient>
    <circle id="kv插画复制-3-g" cx="5.708" cy="5" r="5"/>
    <linearGradient id="kv插画复制-3-i" x1="0%" x2="100%" y1="0%" y2="100%">
      <stop offset="0%" stop-color="#FFF258"/>
      <stop offset="100%" stop-color="#FFBB0C"/>
    </linearGradient>
    <path id="kv插画复制-3-j" d="M18.2641841,15.1574836 L14.5133785,14.0530428 C14.0792575,13.9272204 13.7771093,13.5182977 13.7771093,13.0639391 C13.7771093,12.4942434 14.2355411,12.0328947 14.8016349,12.0328947 L17.1042128,12.0328947 C17.5279149,12.0328947 17.9446711,12.1622122 18.2919679,12.3998766 C18.5038189,12.5431743 18.7886023,12.5082237 18.9691967,12.3299753 L20.1777896,11.141653 C20.4243703,10.9004934 20.3896407,10.4985609 20.1152762,10.2853618 C19.264399,9.61430921 18.2016707,9.24033717 17.1111587,9.23684211 L17.1111587,7.55921053 C17.1111587,7.25164474 16.861105,7 16.5554838,7 L15.444134,7 C15.1385128,7 14.8884591,7.25164474 14.8884591,7.55921053 L14.8884591,9.23684211 L14.8016349,9.23684211 C12.5893542,9.23684211 10.8111945,11.1486431 11.0160996,13.4169408 C11.1619642,15.0281661 12.384449,16.3388158 13.9264469,16.7931743 L17.4862393,17.8416941 C17.9203603,17.9710115 18.2225085,18.3764391 18.2225085,18.8307977 C18.2225085,19.4004934 17.7640767,19.8618421 17.1979829,19.8618421 L14.895405,19.8618421 C14.4717029,19.8618421 14.0549467,19.7325247 13.7076499,19.4948602 C13.4957989,19.3515625 13.2110155,19.3865132 13.0304211,19.5647615 L11.8218282,20.7530839 C11.5752475,20.9942434 11.6099771,21.396176 11.8843416,21.609375 C12.7352188,22.2804276 13.7979471,22.6543997 14.8884591,22.6578947 L14.8884591,24.3355263 C14.8884591,24.6430921 15.1385128,24.8947368 15.444134,24.8947368 L16.5554838,24.8947368 C16.861105,24.8947368 17.1111587,24.6430921 17.1111587,24.3355263 L17.1111587,22.6509046 C18.7295619,22.619449 20.247249,21.6513158 20.7820861,20.1099918 C21.5287742,17.9570313 20.2750327,15.7481497 18.2641841,15.1574836 Z"/>
  </defs>
  <g fill="none" fill-rule="evenodd">
    <ellipse cx="165.5" cy="88" fill="url(#kv插画复制-3-a)" rx="88.404" ry="88"/>
    <g transform="translate(11)">
      <circle cx="37" cy="168.932" r="34" fill="#FFF" fill-opacity=".1"/>
      <circle cx="271" cy="159.068" r="21" fill="#FFF" fill-opacity=".1"/>
      <g transform="translate(0 103.932)">
        <path fill="url(#kv插画复制-3-b)" fill-rule="nonzero" d="M94.6376334,52.7370285 C94.6501465,29.6732346 75.9343101,10.9874895 52.8382285,11 C29.7446854,11.0125217 11.0125243,29.7145979 11,52.7758468 C10.9874869,75.8396407 29.7033233,94.5253858 52.7994049,94.5128754 C75.892948,94.5003537 94.6251091,75.7982775 94.6376334,52.7370285 Z" transform="rotate(17 52.819 52.756)"/>
        <ellipse cx="51.647" cy="56.582" fill="#006BCE" rx="3.757" ry="3.751" transform="rotate(17 51.647 56.582)"/>
        <ellipse cx="78.146" cy="44.322" fill="#006BCE" rx="3.757" ry="3.751" transform="rotate(17 78.146 44.322)"/>
        <g transform="translate(57.935 53.202)">
          <mask id="kv插画复制-3-d" fill="#fff">
            <use xlink:href="#kv插画复制-3-c"/>
          </mask>
          <use fill="#006BCE" xlink:href="#kv插画复制-3-c"/>
          <path fill="#FFF" d="M22.2834026,7.25175815 C21.286085,11.2362738 19.3137696,13.9920627 16.3664566,15.5191247 C13.3123438,17.1015219 9.23007057,16.9876211 4.11963684,15.1774223 C4.46485156,12.3327812 7.97584524,9.17028948 12.8640241,7.5820239 C16.4382895,6.42067466 19.911579,6.3730613 22.2834026,7.25175815 L22.2834026,7.25175815 Z" mask="url(#kv插画复制-3-d)"/>
        </g>
      </g>
      <g transform="translate(104 57.932)">
        <path fill="url(#kv插画复制-3-e)" fill-rule="nonzero" d="M4.58298852,52.4922735 L4.58298852,11 C4.58298852,4.92486775 9.50785627,1.13686838e-13 15.5829885,1.13686838e-13 L85,1.13686838e-13 C91.0751322,1.13686838e-13 96,4.92486775 96,11 L96,52 C96,58.0751322 91.0751322,63 85,63 L17.2251607,63 L3.5145839,68.0337132 C2.47768877,68.4143998 1.32851174,67.8824376 0.947825153,66.8455425 C0.802927501,66.4508775 0.786086161,66.0205869 0.899693862,65.6158042 L4.58298852,52.4922735 Z"/>
        <path fill="#FFF" fill-opacity=".9" d="M26 17L76 17C77.1045695 17 78 17.8954305 78 19 78 20.1045695 77.1045695 21 76 21L26 21C24.8954305 21 24 20.1045695 24 19 24 17.8954305 24.8954305 17 26 17zM26 29L76 29C77.1045695 29 78 29.8954305 78 31 78 32.1045695 77.1045695 33 76 33L26 33C24.8954305 33 24 32.1045695 24 31 24 29.8954305 24.8954305 29 26 29zM26 41L59 41C60.1045695 41 61 41.8954305 61 43 61 44.1045695 60.1045695 45 59 45L26 45C24.8954305 45 24 44.1045695 24 43 24 41.8954305 24.8954305 41 26 41z"/>
      </g>
      <g transform="rotate(-15 604.789 -808.667)">
        <path fill="url(#kv插画复制-3-f)" fill-rule="nonzero" d="M26.7961165,53.5 C41.5939016,53.5 53.592233,41.5249212 53.592233,26.75 C53.592233,11.9750788 41.5939016,0 26.7961165,0 C11.9983314,0 0,11.9750788 0,26.75 C0,41.5249212 11.9983314,53.5 26.7961165,53.5 Z"/>
        <ellipse cx="16.019" cy="17.996" fill="#006BCE" rx="2" ry="1.996"/>
        <ellipse cx="29.047" cy="25.996" fill="#006BCE" rx="2" ry="1.996"/>
        <g transform="translate(11.292 24)">
          <mask id="kv插画复制-3-h" fill="#fff">
            <use xlink:href="#kv插画复制-3-g"/>
          </mask>
          <use fill="#006BCE" xlink:href="#kv插画复制-3-g"/>
          <path fill="#FFF" d="M0.716409077,5.29479357 C1.92964526,5.41116394 3.27456653,5.8545747 4.56018299,6.627051 C5.9317598,7.45117749 7.00432579,8.51073998 7.67117278,9.59981154 C7.06842783,9.85740986 6.40479722,10 5.70786289,10 C3.04540149,10 0.868984069,7.91899837 0.716409077,5.29479357 L0.716409077,5.29479357 Z" mask="url(#kv插画复制-3-h)"/>
        </g>
      </g>
      <g transform="translate(200)">
        <circle cx="49.333" cy="43.333" r="21" fill="#FFF" fill-opacity=".1" transform="rotate(-28 49.333 43.333)"/>
        <g transform="rotate(-43 48.232 17.768)">
          <path fill="url(#kv插画复制-3-f)" fill-rule="nonzero" d="M26.7961165,53.5 C41.5939016,53.5 53.592233,41.5249212 53.592233,26.75 C53.592233,11.9750788 41.5939016,-5.68434189e-14 26.7961165,-5.68434189e-14 C11.9983314,-5.68434189e-14 0,11.9750788 0,26.75 C0,41.5249212 11.9983314,53.5 26.7961165,53.5 Z"/>
          <ellipse cx="18.016" cy="14.389" fill="#006BCE" rx="2" ry="1.996"/>
          <ellipse cx="27.05" cy="29.604" fill="#006BCE" rx="2" ry="1.996"/>
        </g>
        <g transform="translate(20.17 41.912)">
          <path fill="#006BCE" d="M3.35068741,0.822529397 C3.35068741,0.822529397 8.08124111,2.84533314 10.1302115,3.33564694 C11.5106884,3.66599181 14.103539,4.01737553 17.9087633,4.38979809 C18.9815919,4.65268056 19.6381829,5.7354883 19.3753005,6.80831688 C18.7425993,8.77611798 13.6237833,12.4997259 7.82110253,10.870432 C2.01842177,9.24113806 0.46054853,4.08281434 1.04228662,2.18810974 C1.16721498,1.78122158 1.94853907,0.400009318 3.35068741,0.822529397 Z"/>
          <path fill="#FFF" d="M16.3442535,9.77188201 C14.1866566,10.995809 11.1139922,11.7950193 7.82110253,10.870432 C4.59008289,9.96321671 2.67513583,7.96185066 1.71282754,6.03899337 C3.41443065,5.20688479 6.26919941,5.04210922 9.33159464,5.74911887 C12.6812561,6.52244915 15.3504258,8.1243374 16.3442535,9.77188201 L16.3442535,9.77188201 Z"/>
        </g>
      </g>
      <path fill="#B9DDFF" fill-rule="nonzero" d="M107.36756,193.704397 C110.465222,195.253229 113.557653,196.6719 116.644856,197.960275 L118.955667,192.423114 C115.995674,191.187827 113.027398,189.826113 110.050842,188.337834 L107.36756,193.704397 Z M126.235516,201.548975 C129.526677,202.637946 132.811714,203.577571 136.090511,204.367663 L137.496098,198.534626 C134.380024,197.783745 131.254793,196.889829 128.120287,195.852692 L126.235516,201.548975 Z M146.184739,206.330367 C149.603448,206.835319 153.014683,207.176108 156.418148,207.352608 L156.728883,201.36066 C153.515552,201.19402 150.29317,200.872097 147.061443,200.394763 L146.184739,206.330367 Z M166.702776,207.384661 C168.465815,207.303792 170.226499,207.17839 171.984779,207.008461 C173.674797,206.844912 175.344819,206.627666 177.008062,206.355108 L176.037774,200.434083 C174.504897,200.685278 172.965729,200.885501 171.407218,201.036324 C169.749849,201.1965 168.089948,201.314724 166.427849,201.390963 L166.702776,207.384661 Z M187.154403,203.977453 C190.427279,202.974852 193.663786,201.750321 196.863384,200.304413 L194.392547,194.836785 C191.423267,196.178611 188.42493,197.31303 185.396995,198.240597 L187.154403,203.977453 Z M206.057975,195.479421 C208.940776,193.751849 211.791497,191.836891 214.610158,189.734966 L211.023354,184.925097 C208.364589,186.907785 205.681387,188.710213 202.97377,190.332802 L206.057975,195.479421 Z M222.536303,183.256689 C225.018588,181.046292 227.475119,178.684608 229.906045,176.171793 L225.593721,172 C223.264999,174.407167 220.915765,176.665697 218.546167,178.775749 L222.536303,183.256689 Z"/>
      <g transform="rotate(14 -301.65 816.753)">
        <circle cx="16" cy="16" r="16" fill="url(#kv插画复制-3-i)"/>
        <use fill="#755424" fill-rule="nonzero" xlink:href="#kv插画复制-3-j"/>
      </g>
      <path fill="#B9DDFF" fill-rule="nonzero" d="M263.956379,68.0310378 C264.857482,70.4932576 265.56535,73.2214113 266.076715,76.2161421 L271.991111,75.2062296 C271.420451,71.8642442 270.62147,68.7849406 269.590902,65.9689622 L263.956379,68.0310378 Z M266.920328,83.8351648 C267.01809,85.5233815 267.067166,87.2754609 267.067385,89.0912806 C267.067386,90.2513725 267.036867,91.385955 266.975643,92.5071053 L272.966717,92.8342675 C273.033934,91.6033835 273.067385,90.3597256 273.067385,89.0909177 C273.067153,87.1611736 273.014846,85.2937934 272.910293,83.4882956 L266.920328,83.8351648 Z M266.058421,100.056283 C265.513335,102.885682 264.747496,105.610211 263.760971,108.231703 L269.376501,110.34495 C270.483365,107.403684 271.341203,104.351862 271.950084,101.191317 L266.058421,100.056283 Z"/>
    </g>
  </g>
</svg>
