<?xml version="1.0" encoding="UTF-8"?>
<svg width="500px" height="334px" viewBox="0 0 500 334" version="1.1" xmlns="http://www.w3.org/2000/svg" xmlns:xlink="http://www.w3.org/1999/xlink">
    <!-- Generator: Sketch 43.2 (39069) - http://www.bohemiancoding.com/sketch -->
    <title>smile</title>
    <desc>Created with Sketch.</desc>
    <defs>
        <radialGradient cx="50.3458333%" cy="30.382971%" fx="50.3458333%" fy="30.382971%" r="50.0519928%" id="radialGradient-1">
            <stop stop-color="#D9EAAC" offset="0%"></stop>
            <stop stop-color="#D6E9A6" offset="8.03711%"></stop>
            <stop stop-color="#B0D94A" offset="63.67%"></stop>
            <stop stop-color="#65B838" offset="100%"></stop>
            <stop stop-color="#5DB536" offset="100%"></stop>
        </radialGradient>
        <radialGradient cx="49.9271028%" cy="-48.923942%" fx="49.9271028%" fy="-48.923942%" r="54.3227414%" gradientTransform="translate(0.499271,-0.489239),scale(0.374540,1.000000),translate(-0.499271,0.489239)" id="radialGradient-2">
            <stop stop-color="#D6E9A6" offset="54.08%"></stop>
            <stop stop-color="#B0D94A" offset="84.31%"></stop>
            <stop stop-color="#65B838" offset="100%"></stop>
            <stop stop-color="#5DB536" offset="100%"></stop>
        </radialGradient>
    </defs>
    <g id="Page-1" stroke="none" stroke-width="1" fill="none" fill-rule="evenodd">
        <g id="smile">
            <rect id="Rectangle-path" fill="#FFFFFF" x="0" y="0" width="500" height="333.333333"></rect>
            <g id="Слой_1" transform="translate(0.000000, 93.000000)">
                <circle id="Oval" fill="url(#radialGradient-1)" cx="81.5713215" cy="54.5713215" r="54.5713215"></circle>
                <circle id="Oval" fill="#FCFCFC" cx="63.0952202" cy="54.0952202" r="9.09522025"></circle>
                <circle id="Oval" fill="#FCFCFC" cx="100.09522" cy="54.0952202" r="9.09522025"></circle>
                <path d="M112.282486,77.5931665 C103.978155,94.7949961 81.2401043,94.0041074 81.2401043,94.0041074 C81.2401043,94.0041074 57.1179985,94.7949961 50,77 C50,77 52.3726662,80.7567214 56.9202763,83.5248319 C62.6542195,87.2815533 71.5517175,90.4451082 81.2401043,90.4451082 C90.9284911,90.4451082 99.8259892,87.2815533 105.559932,83.7225541 C109.90982,80.9544436 112.282486,77.5931665 112.282486,77.5931665 Z" id="Shape" fill="#FCFCFC"></path>
                <path d="M113.46882,80 C110.502987,105.901605 81.2401043,103.726662 81.2401043,103.726662 C81.2401043,103.726662 52.174944,104.715272 50,80.9886109 C50,80.9886109 60.8747199,93.6428304 81.2401043,93.6428304 C102.000933,93.4451082 113.46882,80 113.46882,80 Z" id="Shape" fill="url(#radialGradient-2)"></path>
                <path d="M231.393203,38.536221 C231.393203,38.536221 223.484316,33 209.841486,33 C196.5941,33 170.692494,37.3498879 164.958551,60.6811051 C164.563107,62.6583269 164.365384,64.6355487 164.563107,66.6127705 C166.738051,80.453323 187.498879,76.4988794 186.510269,85.9895441 C184.928491,99.4346522 151.315721,95.4802087 151.315721,95.4802087 L144,108.33215 C144,108.33215 154.479276,109.716206 165.551718,109.518483 C178.799104,109.320761 204.898431,102.005041 208.655153,81.8373783 C209.248319,78.2783791 208.852875,74.5216577 207.073375,71.3581028 C201.537154,61.669716 188.092046,65.4264374 186.510269,57.9129946 C186.510269,57.9129946 184.335325,46.247386 208.655153,48.2246078 C226.252427,47.6314413 231.393203,38.536221 231.393203,38.536221 Z" id="Shape" fill="#82949C"></path>
                <path d="M201,106.738984 L218.794996,59.0879386 C218.794996,59.0879386 221.958551,53.9471619 231.053771,51.5744958 C244.301157,48.2132187 248.848767,32.3954444 269.01643,32 C285.625093,32 285.229648,45.247386 285.229648,45.247386 C285.229648,45.247386 296.499813,32.1977222 313.899364,32 C331.298916,32 329.519417,47.0268856 329.519417,47.0268856 L309.351754,108.123039 L289.579536,108.123039 L307.17681,58.8902164 C307.17681,58.8902164 311.72442,49.597274 301.047423,48.2132187 C297.290701,48.4109409 282.461538,44.8519417 265.259708,108.123039 L245.48749,108.123039 L263.282486,57.7038833 C263.282486,57.7038833 266.248319,47.0268856 256.559932,47.0268856 C243.707991,47.0268856 233.426437,64.4264374 220.574496,107.134428 L201,106.738984 Z" id="Shape" fill="#82949C"></path>
                <polygon id="Shape" fill="#82949C" points="316 106.750373 340.715272 33 360.685213 33 334.585885 106.354929"></polygon>
                <path d="M342,30.2041991 C342,30.2041991 342,11.4205921 369.483383,12.0137586 C369.483383,12.0137586 367.901605,30.4019213 342,30.2041991 Z" id="Shape" fill="#9FD21B"></path>
                <path d="M340,108.374532 L378.555825,2 L397.932599,2 L366.890216,87.8114258 C367.087939,87.8114258 361.947162,106.990477 340,108.374532 Z" id="Shape" fill="#82949C"></path>
                <path d="M426.028306,33.002309 C426.028306,33.002309 385.890703,31.815976 374.620539,83.2237426 C373.82965,86.5850196 373.82965,89.9462967 374.422817,93.3075737 C375.806872,100.821017 381.145371,109.125348 403.487977,109.125348 C403.487977,109.125348 428.005527,111.695736 432.553137,96.2734064 C432.553137,96.2734064 422.469306,96.2734064 413.374086,96.0756842 C400.719867,95.8779621 388.658814,95.4825177 392.415535,77.8852437 L444.416468,77.8852437 C444.416468,77.8852437 450.743578,66.021913 450.545856,54.3563044 C450.545856,42.888418 449.754967,33.9909199 426.028306,33.002309 Z" id="Shape" fill="#82949C"></path>
                <path d="M397,63.9979278 L431.601381,63.9979278 C431.601381,63.9979278 435.555825,53.7163745 427.251493,48.1801534 C423.692494,45.8074873 419.144884,45.4120429 414.992718,46.7960982 C402.140777,50.7505418 397,63.9979278 397,63.9979278 Z" id="Shape" fill="#FCFCFC"></path>
                <text id="Smile-Nigeria" fill="#82949C" font-family="Helvetica" font-size="18.1399994" font-weight="normal">
                    <tspan x="341" y="125">Smile Nigeria</tspan>
                </text>
                <path d="M0,201 L394.333333,201 C501.333333,201 500,144.333333 500,144.333333 L500,239.333333 L0,239.333333 L0,201 Z" id="Shape" fill="#E2E2E2"></path>
            </g>
        </g>
    </g>
</svg>