<?xml version="1.0" encoding="UTF-8"?>
<svg width="500px" height="333px" viewBox="0 0 500 333" version="1.1" xmlns="http://www.w3.org/2000/svg" xmlns:xlink="http://www.w3.org/1999/xlink">
    <!-- Generator: Sketch 43.1 (39012) - http://www.bohemiancoding.com/sketch -->
    <title>StarTimes</title>
    <desc>Created with Sketch.</desc>
    <defs>
        <linearGradient x1="100%" y1="75.8615134%" x2="0%" y2="0%" id="linearGradient-1">
            <stop stop-color="#17335A" offset="0%"></stop>
            <stop stop-color="#63BED9" offset="100%"></stop>
        </linearGradient>
        <linearGradient x1="100%" y1="75.8615134%" x2="0%" y2="0%" id="linearGradient-2">
            <stop stop-color="#D3482B" offset="0%"></stop>
            <stop stop-color="#F2D54D" offset="100%"></stop>
        </linearGradient>
        <linearGradient x1="87.3745556%" y1="50%" x2="0%" y2="0%" id="linearGradient-3">
            <stop stop-color="#4283A3" offset="0%"></stop>
            <stop stop-color="#63BED9" offset="100%"></stop>
        </linearGradient>
    </defs>
    <g id="Page-1" stroke="none" stroke-width="1" fill="none" fill-rule="evenodd">
        <g id="StarTimes">
            <rect id="Rectangle-36" fill="#FFFFFF" x="0" y="0" width="500" height="333"></rect>
            <g id="Group-6" transform="translate(12.000000, 96.000000)">
                <path d="M47.2214686,66.9016744 C47.2214686,66.9016744 77.2526733,66.9016744 77.2526733,66.9016744 C81.2494533,66.9016744 86.2742233,69.2803901 88.0547682,70.3789006 C89.8353131,71.4774112 131.611283,104.963732 131.611283,104.963732 C131.611283,104.963732 135.950634,109.317978 135.444003,114.025841 C134.937371,118.733704 128.046537,122.049545 128.046537,122.049545 L111.245973,127.281 L107.560384,128.194815 C77.7974142,124.526451 75.3302957,115.62574 71.7044209,108.565701 C68.0785461,101.505662 57.9673915,73.7837785 53.6503985,70.3789006 C51.7874043,68.4427131 47.2214686,66.9016744 47.2214686,66.9016744 Z" id="Rectangle-37-Copy-2" fill="url(#linearGradient-1)" transform="translate(91.353308, 97.548245) rotate(-270.000000) translate(-91.353308, -97.548245) "></path>
                <path d="M0.341522145,70.9296931 C0.341522145,70.9296931 30.3727268,70.9296931 30.3727268,70.9296931 C34.3695068,70.9296931 38.0798792,75.3363929 38.0798792,75.3363929 L73.0031171,115.748526 C73.0031171,115.748526 77.3424688,120.102772 76.835837,124.810635 C76.3292052,129.518497 69.7729736,134.0865 69.7729736,134.0865 L52.2944281,141.663757 L34.3695068,134.802716 C34.3695068,134.802716 26.2537373,130.779516 22.6278625,123.719476 C19.0019877,116.659437 11.3995383,77.3863544 7.03516878,73.9704806 C5.17217467,72.0342931 0.341522145,70.9296931 0.341522145,70.9296931 Z" id="Rectangle-37-Copy" fill="url(#linearGradient-2)" transform="translate(38.609252, 106.296725) rotate(-180.000000) translate(-38.609252, -106.296725) "></path>
                <path d="M-13.1498111,13.8259927 C-13.1498111,13.8259927 16.8813935,13.8259927 16.8813935,13.8259927 C20.8781735,13.8259927 25.9029435,16.2047084 27.6834885,17.3032189 C29.4640334,18.4017295 71.2400029,51.8880504 71.2400029,51.8880504 C71.2400029,51.8880504 75.5793545,56.2422966 75.0727227,60.9501594 C74.566091,65.6580221 67.6752573,68.9738636 67.6752573,68.9738636 L50.8746928,74.2053184 L47.1891046,75.1191334 C17.4261344,71.4507688 14.959016,62.5500585 11.3331412,55.4900192 C7.70726637,48.42998 -2.3066491,20.9646039 -6.7208813,17.3032189 C-8.58387541,15.3670314 -13.1498111,13.8259927 -13.1498111,13.8259927 Z" id="Rectangle-37-Copy-3" fill="url(#linearGradient-1)" transform="translate(30.982029, 44.472563) rotate(-90.000000) translate(-30.982029, -44.472563) "></path>
                <path d="M45.4169552,0.26964992 C45.4169552,0.26964992 75.4481599,0.26964992 75.4481599,0.26964992 C79.4449398,0.26964992 83.1553123,4.67634973 83.1553123,4.67634973 L118.07855,45.0884823 C118.07855,45.0884823 122.417902,49.4427286 121.91127,54.1505913 C121.404638,58.8584541 115.522802,63.3296277 115.522802,63.3296277 L97.3698612,71.0037139 L79.4449398,64.1426725 C79.4449398,64.1426725 71.3291704,60.1194724 67.7032956,53.0594332 C64.0774208,45.999394 57.3277677,7.01944812 52.1106019,3.31043742 C50.2476077,1.37424986 45.4169552,0.26964992 45.4169552,0.26964992 Z" id="Rectangle-37-Copy-4" fill="url(#linearGradient-2)"></path>
                <path d="M80.2941715,52.6954976 C80.2941715,52.6954976 110.325376,52.6954976 110.325376,52.6954976 C114.322156,52.6954976 119.346926,55.0742133 121.127471,56.1727239 C122.908016,57.2712344 108.402999,101.419563 104.777124,94.3595242 C101.151249,87.299485 91.0400944,59.5776018 86.7231013,56.1727239 C84.8601072,54.2365363 80.2941715,52.6954976 80.2941715,52.6954976 Z" id="Rectangle-37-Copy-5" fill="url(#linearGradient-3)" transform="translate(100.786209, 73.909648) rotate(-270.000000) translate(-100.786209, -73.909648) "></path>
            </g>
            <path d="M208.64785,150.424163 L197.096523,150.424163 L197.096523,147.904292 C197.096523,145.347888 196.473664,143.138458 195.227927,141.275936 C193.982189,139.413413 191.887117,138.482166 188.942646,138.482166 C187.357162,138.482166 186.05482,138.774322 185.03558,139.358643 C184.01634,139.942964 183.22361,140.691613 182.657366,141.604615 C182.091121,142.517616 181.694756,143.576681 181.468259,144.781843 C181.241761,145.987005 181.128514,147.246928 181.128514,148.561649 C181.128514,150.095491 181.185137,151.391934 181.298386,152.451015 C181.411635,153.510097 181.694753,154.423084 182.147748,155.190005 C182.600744,155.956926 183.261352,156.632537 184.129594,157.216858 C184.997835,157.801179 186.18693,158.385491 187.696915,158.969811 L196.530282,162.366159 C199.097256,163.31568 201.173454,164.429525 202.758938,165.707727 C204.344422,166.985929 205.571267,168.483228 206.439508,170.199671 C207.307749,171.916113 207.892859,173.888166 208.194856,176.115889 C208.496853,178.343612 208.64785,180.881718 208.64785,183.730281 C208.64785,187.017086 208.308108,190.066464 207.628615,192.878508 C206.949122,195.690552 205.835525,198.100839 204.28779,200.109442 C202.740056,202.118045 200.682732,203.706643 198.115758,204.875285 C195.548784,206.043926 192.415612,206.628238 188.71615,206.628238 C185.922678,206.628238 183.317993,206.153485 180.902017,205.203963 C178.486041,204.254442 176.409843,202.958 174.673361,201.314597 C172.936878,199.671195 171.559038,197.717402 170.539798,195.453159 C169.520558,193.188916 169.010946,190.742109 169.010946,188.112665 L169.010946,183.949401 L180.562272,183.949401 L180.562272,187.455308 C180.562272,189.500431 181.185132,191.344666 182.430869,192.988068 C183.676607,194.63147 185.771679,195.453159 188.71615,195.453159 C190.67913,195.453159 192.207967,195.179263 193.302706,194.631462 C194.397445,194.083661 195.227924,193.316751 195.794168,192.33071 C196.360412,191.344669 196.719028,190.121265 196.870027,188.660464 C197.021025,187.199662 197.096523,185.592803 197.096523,183.839841 C197.096523,181.794718 197.021025,180.114821 196.870027,178.800099 C196.719028,177.485378 196.398161,176.426312 195.907416,175.622871 C195.416671,174.81943 194.737188,174.162079 193.868947,173.650798 C193.000706,173.139517 191.84936,172.591725 190.414874,172.007404 L182.147748,168.720616 C177.164798,166.748533 173.824007,164.137389 172.125274,160.887105 C170.426541,157.63682 169.577188,153.564896 169.577188,148.671209 C169.577188,145.749605 169.992427,142.974123 170.822919,140.344679 C171.65341,137.715236 172.880255,135.451026 174.503488,133.551984 C176.126722,131.652941 178.184046,130.137382 180.675521,129.00526 C183.166995,127.873139 186.073673,127.307087 189.395639,127.307087 C192.26461,127.307087 194.88817,127.81836 197.266396,128.840921 C199.644622,129.863482 201.683071,131.214704 203.381804,132.894626 C205.080537,134.574549 206.382879,136.455303 207.28887,138.536946 C208.194861,140.618589 208.64785,142.754979 208.64785,144.946182 L208.64785,150.424163 Z M214.058601,133.551984 L225.609928,133.551984 L225.609928,150.424163 L232.74457,150.424163 L232.74457,159.188931 L225.609928,159.188931 L225.609928,189.975179 C225.609928,191.289901 225.742049,192.312447 226.006297,193.042848 C226.270544,193.773249 226.685784,194.321041 227.252028,194.686242 C227.818272,195.051442 228.554379,195.270559 229.46037,195.343599 C230.366361,195.416639 231.461083,195.453159 232.74457,195.453159 L232.74457,205.970881 L227.988142,205.970881 C225.345668,205.970881 223.137349,205.569166 221.363117,204.765725 C219.588884,203.962284 218.173295,202.939738 217.116305,201.698056 C216.059316,200.456374 215.28546,199.050374 214.794715,197.480011 C214.30397,195.909649 214.058601,194.39409 214.058601,192.933288 L214.058601,159.188931 L214.058601,150.424163 L214.058601,133.551984 Z M248.767009,206.730119 C247.408023,206.730119 246.011308,206.529261 244.576822,206.127541 C243.142336,205.72582 241.802245,204.99543 240.556507,203.936349 C239.31077,202.877267 238.291546,201.379968 237.498804,199.444405 C236.706061,197.508842 236.309696,195.007257 236.309696,191.939572 C236.309696,188.798848 236.57394,186.041626 237.102434,183.667822 C237.630929,181.294019 238.59353,179.321966 239.990266,177.751604 C241.387002,176.181242 243.25558,175.012618 245.596057,174.245697 C247.936533,173.478776 250.918708,173.095321 254.542672,173.095321 C255.373164,173.095321 256.203643,173.13184 257.034135,173.204881 C257.864626,173.277921 258.883851,173.35096 260.091839,173.424 L260.091839,167.617341 C260.091839,165.718298 259.676599,164.14796 258.846107,162.906278 C258.015616,161.664596 256.505653,161.043765 254.316175,161.043765 C252.806191,161.043765 251.42835,161.518518 250.182613,162.46804 C248.936875,163.417561 248.12527,164.805302 247.747774,166.631304 L236.536193,166.631304 C236.913689,161.591538 238.650146,157.574392 241.745615,154.579748 C243.255599,153.118946 245.067554,151.968582 247.181533,151.128621 C249.295512,150.28866 251.673702,149.868685 254.316175,149.868685 C256.732151,149.868685 258.997094,150.23388 261.111073,150.964281 C263.225052,151.694682 265.055881,152.790267 266.603616,154.251069 C268.15135,155.711871 269.378194,157.537847 270.284185,159.72905 C271.190176,161.920253 271.643165,164.476618 271.643165,167.398222 L271.643165,202.350098 C271.643165,202.350098 264.85544,206.730119 248.767009,206.730119 Z M260.091839,182.188768 C258.808351,181.969648 257.751378,181.860089 256.920886,181.860089 C254.429411,181.860089 252.29659,182.426141 250.522358,183.558263 C248.748125,184.690384 247.861023,186.753736 247.861023,189.74838 C247.861023,191.866543 248.389509,193.58296 249.446499,194.897682 C250.503488,196.212403 251.975701,196.869754 253.863182,196.869754 C255.826163,196.869754 257.354999,196.248923 258.449738,195.007241 C259.544477,193.76556 260.091839,192.012623 260.091839,189.74838 L260.091839,182.188768 Z M277.620158,155.501732 C286.301381,147.545185 301.138038,149.868685 304.460004,149.868685 L304.460004,161.701122 C303.327516,161.262882 302.157295,161.043765 300.949307,161.043765 C299.741319,161.043765 293.592173,159.225377 289.171484,163.748809 L289.171484,173.095321 L289.171484,206.072761 L277.620158,206.072761 C277.620158,206.072761 277.620158,155.501732 277.620158,155.501732 Z M314.853681,138.584046 L295.261726,138.584046 L295.261726,128.066325 L345.594302,128.066325 L345.594302,138.584046 L326.405007,138.584046 L326.405007,206.072761 L314.853681,206.072761 L314.853681,138.584046 Z M334.062,150.526043 L345.613326,150.526043 L345.613326,206.072761 L334.062,206.072761 L334.062,150.526043 Z M352.609554,150.526043 L364.16088,150.526043 L364.16088,155.894463 L364.387377,155.894463 C365.595365,154.141501 367.048703,152.698981 368.747436,151.566859 C370.446169,150.434738 372.61674,149.868685 375.259213,149.868685 C377.750688,149.868685 379.826886,150.452997 381.48787,151.621639 C383.148853,152.790281 384.507819,154.068463 385.564808,155.456225 C386.999294,153.922383 388.584754,152.607681 390.321237,151.512079 C392.057719,150.416478 394.473659,149.868685 397.569128,149.868685 C399.003613,149.868685 400.475826,150.106062 401.985811,150.580823 C403.495796,151.055583 404.854762,151.840753 406.06275,152.936354 C407.270738,154.031956 408.252213,155.437957 409.007206,157.154399 C409.762198,158.870841 410.139688,160.970713 410.139688,163.454076 L410.139688,206.072761 L398.588362,206.072761 L398.588362,167.617341 C398.588362,165.572218 398.097625,163.96536 397.116134,162.796718 C396.134644,161.628077 394.737929,161.043765 392.925948,161.043765 C390.73647,161.043765 389.226507,161.701116 388.396016,163.015838 C387.565524,164.330559 387.150284,166.229573 387.150284,168.712937 L387.150284,206.072761 L375.598958,206.072761 L375.598958,167.617341 C375.598958,165.572218 375.108221,163.96536 374.12673,162.796718 C373.14524,161.628077 371.748525,161.043765 369.936543,161.043765 C367.747065,161.043765 366.237103,161.701116 365.406612,163.015838 C364.57612,164.330559 364.16088,166.229573 364.16088,168.712937 L364.16088,206.072761 L352.609554,206.072761 L352.609554,150.526043 Z M427.668008,182.517447 L427.668008,190.077059 C427.668008,191.830022 428.17762,193.181243 429.19686,194.130764 C430.2161,195.080286 431.59394,195.555039 433.330423,195.555039 C435.519901,195.555039 436.973239,194.934208 437.690482,193.692526 C438.407725,192.450844 438.841839,191.209181 438.992838,189.9675 L450.544164,189.9675 C450.544164,192.304783 450.147799,194.495953 449.355057,196.541076 C448.562315,198.586198 447.410968,200.339135 445.900984,201.799937 C444.390999,203.333779 442.579044,204.538922 440.465065,205.415403 C438.351087,206.291885 435.972896,206.730119 433.330423,206.730119 C429.781958,206.730119 426.724285,205.999729 424.157311,204.538927 C421.590337,203.078125 419.627386,201.142591 418.268399,198.732268 C417.437908,197.271466 416.871672,195.591569 416.569675,193.692526 C416.267678,191.793483 416.116682,189.711872 416.116682,187.447629 L416.116682,169.151175 C416.116682,166.886932 416.267678,164.805321 416.569675,162.906278 C416.871672,161.007235 417.437908,159.327338 418.268399,157.866536 C419.627386,155.456213 421.590337,153.520679 424.157311,152.059877 C426.724285,150.599075 429.781958,149.868685 433.330423,149.868685 C435.972896,149.868685 438.369961,150.306919 440.52169,151.183401 C442.673418,152.059882 444.485373,153.283285 445.957608,154.853647 C447.429843,156.424009 448.562315,158.268244 449.355057,160.386407 C450.147799,162.50457 450.544164,164.768779 450.544164,167.179102 L450.544164,182.517447 L427.668008,182.517447 Z M427.674807,173.813859 L438.999636,173.813859 L438.999636,167.459402 C438.999636,165.341239 438.490024,163.752641 437.470784,162.69356 C436.451544,161.634478 435.073704,161.104945 433.337221,161.104945 C431.600739,161.104945 430.222898,161.634478 429.203659,162.69356 C428.184419,163.752641 427.674807,165.341239 427.674807,167.459402 L427.674807,173.813859 Z M477.472092,166.083506 C477.396593,164.184464 476.773733,162.760203 475.603495,161.810682 C474.433257,160.861161 473.093165,160.386407 471.58318,160.386407 C469.771199,160.386407 468.374484,160.952459 467.392993,162.084581 C466.411503,163.216703 465.920766,164.513145 465.920766,165.973947 C465.920766,166.996508 466.185009,168.000795 466.713504,168.986836 C467.241998,169.972877 468.600964,170.867605 470.790442,171.671046 L477.58534,174.300477 C481.888797,175.907359 484.852098,178.098529 486.475331,180.874053 C488.098565,183.649576 488.91017,186.680695 488.91017,189.9675 C488.91017,192.304783 488.476056,194.477693 487.607814,196.486296 C486.739573,198.494899 485.550478,200.266094 484.040493,201.799937 C482.530508,203.333779 480.718554,204.538922 478.604575,205.415403 C476.490596,206.291885 474.187904,206.730119 471.696429,206.730119 C469.431451,206.730119 467.279755,206.364924 465.241276,205.634523 C463.202796,204.904122 461.409716,203.845056 459.861982,202.457294 C458.314247,201.069532 457.049654,199.334856 456.068164,197.253213 C455.086674,195.17157 454.558187,192.743023 454.482688,189.9675 L465.354524,189.9675 C465.581022,191.501342 466.128383,192.925602 466.996624,194.240324 C467.864866,195.555046 469.393702,196.212397 471.58318,196.212397 C473.244164,196.212397 474.735251,195.682864 476.056488,194.623783 C477.377725,193.564701 478.038333,192.085661 478.038333,190.186619 C478.038333,188.652777 477.623094,187.338075 476.792602,186.242473 C475.96211,185.146872 474.452148,184.197365 472.26267,183.393923 L466.713504,181.421851 C463.08954,180.107129 460.239487,178.153335 458.163257,175.560412 C456.087028,172.967488 455.048929,169.808551 455.048929,166.083506 C455.048929,163.746223 455.501918,161.573313 456.407909,159.56471 C457.3139,157.556107 458.540744,155.839691 460.088478,154.415409 C461.636213,152.991127 463.429293,151.877282 465.467772,151.073841 C467.506252,150.2704 469.695697,149.868685 472.036174,149.868685 C474.37665,149.868685 476.547221,150.28866 478.547951,151.128621 C480.548681,151.968582 482.266263,153.100687 483.700748,154.524968 C485.135234,155.94925 486.267705,157.665667 487.098197,159.67427 C487.928689,161.682872 488.343928,163.819263 488.343928,166.083506 L477.472092,166.083506 Z" fill="#000000"></path>
        </g>
    </g>
</svg>