<?xml version="1.0" encoding="UTF-8"?>
<svg width="500px" height="333px" viewBox="0 0 500 333" version="1.1" xmlns="http://www.w3.org/2000/svg" xmlns:xlink="http://www.w3.org/1999/xlink">
    <!-- Generator: Sketch 50 (54983) - http://www.bohemiancoding.com/sketch -->
    <title>transfer to tua</title>
    <desc>Created with Sketch.</desc>
    <defs>
        <linearGradient x1="0%" y1="100%" x2="100%" y2="0%" id="linearGradient-1">
            <stop stop-color="#005491" offset="0%"></stop>
            <stop stop-color="#0094AF" offset="50.5168832%"></stop>
            <stop stop-color="#27D0BD" offset="100%"></stop>
        </linearGradient>
        <rect id="path-2" x="0" y="0" width="500" height="333"></rect>
        <filter x="-21.1%" y="-25.3%" width="141.1%" height="164.7%" filterUnits="objectBoundingBox" id="filter-3">
            <feOffset dx="0" dy="2" in="SourceAlpha" result="shadowOffsetOuter1"></feOffset>
            <feGaussianBlur stdDeviation="2" in="shadowOffsetOuter1" result="shadowBlurOuter1"></feGaussianBlur>
            <feColorMatrix values="0 0 0 0 0   0 0 0 0 0   0 0 0 0 0  0 0 0 0.5 0" type="matrix" in="shadowBlurOuter1" result="shadowMatrixOuter1"></feColorMatrix>
            <feMerge>
                <feMergeNode in="shadowMatrixOuter1"></feMergeNode>
                <feMergeNode in="SourceGraphic"></feMergeNode>
            </feMerge>
        </filter>
        <text id="text-4" font-family="SFProText-Bold, SF Pro Text" font-size="55" font-weight="bold" letter-spacing="0.659999847" fill="#FFFFFF">
            <tspan x="0.347539902" y="103">TUA Account</tspan>
        </text>
        <filter x="-1.9%" y="-7.7%" width="103.8%" height="121.5%" filterUnits="objectBoundingBox" id="filter-5">
            <feOffset dx="0" dy="2" in="SourceAlpha" result="shadowOffsetOuter1"></feOffset>
            <feGaussianBlur stdDeviation="2" in="shadowOffsetOuter1" result="shadowBlurOuter1"></feGaussianBlur>
            <feColorMatrix values="0 0 0 0 0   0 0 0 0 0   0 0 0 0 0  0 0 0 0.5 0" type="matrix" in="shadowBlurOuter1"></feColorMatrix>
        </filter>
        <text id="text-6" font-family="SFProText-Bold, SF Pro Text" font-size="48" font-weight="bold" letter-spacing="0.576000154" fill="#FFFFFF">
            <tspan x="49.3007492" y="46">TRANSFER to</tspan>
        </text>
        <filter x="-2.1%" y="-8.6%" width="104.2%" height="124.1%" filterUnits="objectBoundingBox" id="filter-7">
            <feOffset dx="0" dy="2" in="SourceAlpha" result="shadowOffsetOuter1"></feOffset>
            <feGaussianBlur stdDeviation="2" in="shadowOffsetOuter1" result="shadowBlurOuter1"></feGaussianBlur>
            <feColorMatrix values="0 0 0 0 0   0 0 0 0 0   0 0 0 0 0  0 0 0 0.5 0" type="matrix" in="shadowBlurOuter1"></feColorMatrix>
        </filter>
        <filter x="-4.8%" y="-3.0%" width="109.6%" height="108.4%" filterUnits="objectBoundingBox" id="filter-8">
            <feOffset dx="0" dy="2" in="SourceAlpha" result="shadowOffsetOuter1"></feOffset>
            <feGaussianBlur stdDeviation="2" in="shadowOffsetOuter1" result="shadowBlurOuter1"></feGaussianBlur>
            <feColorMatrix values="0 0 0 0 0   0 0 0 0 0   0 0 0 0 0  0 0 0 0.5 0" type="matrix" in="shadowBlurOuter1" result="shadowMatrixOuter1"></feColorMatrix>
            <feMerge>
                <feMergeNode in="shadowMatrixOuter1"></feMergeNode>
                <feMergeNode in="SourceGraphic"></feMergeNode>
            </feMerge>
        </filter>
    </defs>
    <g id="Page-1" stroke="none" stroke-width="1" fill="none" fill-rule="evenodd">
        <g id="Artboard-Copy" transform="translate(-12000.000000, 0.000000)">
            <g id="transfer-to-tua" transform="translate(12000.000000, 0.000000)">
                <g id="A2A-Copy">
                    <g id="A2A-Copy-2">
                        <g id="Rectangle-47-Copy-22">
                            <use fill="url(#linearGradient-1)" xlink:href="#path-2"></use>
                            <use fill-opacity="0.15" fill="#000000" xlink:href="#path-2"></use>
                        </g>
                        <g id="Group-12" transform="translate(36.000000, 205.000000)">
                            <g id="A2A-Copy" transform="translate(381.000000, 68.000000)">
                                <g id="Group-20" filter="url(#filter-3)" transform="translate(0.246176, 0.138030)">
                                    <path d="M10.5926471,22.1066524 L29.085688,22.1066524 L29.085688,31.0380455 C29.085688,31.2057192 29.2216144,31.3416455 29.389288,31.3416455 C29.4610518,31.3416455 29.5304955,31.3162243 29.5852985,31.2698922 L46.8309087,16.689912 C46.9589541,16.5816584 46.9749985,16.3901003 46.8667449,16.2620549 C46.8586766,16.2525115 46.8500268,16.2434753 46.8408447,16.234998 L29.5952344,0.31302861 C29.4720378,0.199287552 29.2799618,0.206952858 29.1662207,0.330149549 C29.1144413,0.386233551 29.085688,0.459764281 29.085688,0.536095952 L29.085688,10.4959459" id="Path-6" stroke="#FFFFFF" stroke-width="6.072"></path>
                                    <g id="Group-5" transform="translate(10.895294, 8.654493) scale(-1, 1) translate(-10.895294, -8.654493) translate(0.000000, 2.125665)" stroke="#00E0C2" stroke-width="4.8576">
                                        <path d="M1.85081659,6.57943925 L19.7907651,6.57943925" id="Path-4"></path>
                                        <polyline id="Path-5" stroke-linecap="round" points="14.7459239 0 21.5635959 6.70460289 14.7459239 12.7674333"></polyline>
                                    </g>
                                </g>
                            </g>
                            <g id="TUA-Account" fill="#FFFFFF" fill-opacity="1">
                                <use filter="url(#filter-5)" xlink:href="#text-4"></use>
                                <use xlink:href="#text-4"></use>
                            </g>
                            <g id="TRANSFER-to" fill="#FFFFFF" fill-opacity="1">
                                <use filter="url(#filter-7)" xlink:href="#text-6"></use>
                                <use xlink:href="#text-6"></use>
                            </g>
                        </g>
                    </g>
                </g>
                <g id="Group" filter="url(#filter-8)" transform="translate(177.000000, 26.000000)">
                    <g id="TopUp-logo-1">
                        <path d="M139.664609,54.2187508 C141.884697,58.4669985 143.861772,62.8218608 145.58028,67.3144606 C145.58028,67.3144606 147.160044,71.3311882 143.759535,72.6240943 C140.359026,73.9170003 138.80426,69.8631004 138.80426,69.8631004 C137.191262,65.6408321 135.335394,61.5385812 133.252986,57.5725747 C133.249571,57.5743599 131.232688,53.741135 134.363649,52.1044605 C137.494611,50.4677859 139.664609,54.2187508 139.664609,54.2187508 Z" id="Rectangle-9" fill="#F73913"></path>
                        <path d="M80.2768996,11.7018161 C107.467443,25.1180493 128.335348,49.3226304 137.235815,78.6951839 C137.234601,78.6911784 138.69565,82.7679178 135.125555,83.8411258 C131.555461,84.9143339 130.29922,80.7714793 130.29922,80.7714793 C121.977246,53.3149932 102.466146,30.6910004 77.0446918,18.1554389 C77.0446918,18.1554389 73.1541692,16.2325284 74.8110674,12.90918 C76.4679656,9.58583154 80.2711281,11.6989636 80.2768996,11.7018161 Z" id="Rectangle-8" fill="#F73913"></path>
                        <path d="M31.8187556,0.291315425 C42.482864,0.354642999 52.7898356,1.91798725 62.5375974,4.78014974 C62.5544087,4.78014974 66.7704143,5.94350956 65.7373578,9.43833744 C64.7043013,12.9331653 60.5563652,11.717647 60.5563652,11.717647 C51.4259584,9.0298756 41.7698031,7.56152175 31.7781605,7.50202354 C31.7781605,7.50202354 27.4540624,7.50202354 27.4540624,3.74702347 C27.4540624,-0.00797659454 31.8187556,0.291315425 31.8187556,0.291315425 Z" id="Rectangle-8-Copy" fill="#F73913"></path>
                        <path d="M19.0437273,12.5524063 C23.0094643,12.0736054 27.0476927,11.8255613 31.140873,11.8255613 C77.28537,11.8255613 116.073742,43.190645 127.170778,85.6792629 C127.177782,85.7062271 128.260397,89.874267 124.660547,90.8012208 C121.060696,91.7281747 120.148733,87.4601153 120.148733,87.4601153 C109.850505,48.092536 73.9038435,19.0362694 31.140873,19.0362694 C27.3691504,19.0362694 23.652385,19.2626469 19.9998667,19.7015273 C20.000331,19.7052925 15.6503601,20.2332673 15.2099426,16.6618853 C14.7695252,13.0905033 19.0437273,12.5524063 19.0437273,12.5524063 Z" id="Rectangle-7" fill="#F73913"></path>
                        <path d="M10.1504875,25.8806679 C16.8769076,24.2366406 23.9075085,23.3626943 31.140873,23.3626943 C79.5381547,23.3626943 118.769841,62.4245578 118.769841,110.612263 C118.769841,115.78665 118.31792,120.854355 117.451772,125.777811 C117.451772,125.777811 116.698877,130.029203 112.956712,129.372216 C109.214547,128.715228 110.321449,124.507698 110.321449,124.507698 C111.113765,119.993618 111.527778,115.351456 111.527778,110.612263 C111.527778,66.4077347 75.5376219,30.5734024 31.140873,30.5734024 C24.5070741,30.5734024 18.0577114,31.3731966 11.8905028,32.8820774 C11.899347,32.8909569 7.68523625,33.9260285 6.80914338,30.4274254 C5.93305051,26.9288224 10.1504875,25.8806679 10.1504875,25.8806679 Z" id="Rectangle-6" fill="#FFC013"></path>
                        <path d="M3.5346128,39.8891768 C12.0222546,36.6299226 21.2457722,34.8445682 30.8864156,34.8445682 C72.8816849,34.8445682 106.928082,68.7435577 106.928082,110.557003 C106.928082,132.062236 97.9247263,151.470554 83.4637965,165.254555 C83.4637965,165.254555 80.4041944,168.30091 77.8027203,165.7107 C75.2012462,163.120489 78.368105,160.13018 78.368105,160.13018 C91.5025638,147.655629 99.6860187,130.057786 99.6860187,110.557003 C99.6860187,72.7238474 68.8840517,42.0552763 30.8864156,42.0552763 C22.1539046,42.0552763 13.8005125,43.6745721 6.11435171,46.6304905 C6.11435171,46.6304905 2.06636855,48.177638 0.729112676,44.7090503 C-0.608143195,41.2404626 3.5346128,39.8891768 3.5346128,39.8891768 Z" id="Rectangle-5" fill="#FFC013"></path>
                        <path d="M2.8968254,52.9121621 C11.4250624,48.7645614 21.0106831,46.4369603 31.140873,46.4369603 C66.7370295,46.4369603 95.5952381,75.1701886 95.5952381,110.612263 C95.5952381,130.037903 86.9279591,147.447433 73.2317602,159.215322 C73.2317602,159.215322 69.9528617,162.053285 67.5525575,159.304006 C65.1522533,156.554727 68.4820272,153.771114 68.4839511,153.769449 C80.6508947,143.323393 88.3531746,127.863138 88.3531746,110.612263 C88.3531746,79.1505135 62.7394671,53.6476684 31.140873,53.6476684 C22.1574345,53.6476684 13.6564313,55.7101348 6.09245226,59.3843982 C6.08225234,59.3893515 2.16915785,61.289632 0.574604641,58.0344683 C-1.01994857,54.7793046 2.8968254,52.9121621 2.8968254,52.9121621 Z" id="Rectangle-4" fill="#FFC013"></path>
                        <path d="M9.8840022,62.401461 C16.3902607,59.5546749 23.5801304,57.9740933 31.140873,57.9740933 C60.3379875,57.9740933 84.0079365,81.5415604 84.0079365,110.612263 C84.0079365,124.076112 78.9326928,136.357378 70.5811225,145.664965 C70.5811225,145.664965 67.6662847,148.888205 64.9331541,146.437938 C62.2000236,143.987671 65.185237,140.856328 65.185237,140.856328 C72.388562,132.823697 76.765873,122.226417 76.765873,110.612263 C76.765873,85.5247725 56.3374547,65.1848014 31.140873,65.1848014 C24.6168014,65.1848014 18.4114112,66.547295 12.7984623,69.0050097 C12.814313,68.9979831 8.84603885,70.757123 7.39529749,67.5128123 C5.94455614,64.2685016 9.86641018,62.401461 9.8840022,62.401461 Z" id="Rectangle-3" fill="#00E0C2"></path>
                        <path d="M20.561661,70.8725995 C23.939334,69.9842529 27.4850454,69.5112263 31.140873,69.5112263 C53.9388747,69.5112263 72.4206349,87.9129675 72.4206349,110.612263 C72.4206349,117.537429 70.6825397,124.064564 67.6611706,129.789859 C67.6611706,129.789859 65.609024,133.632675 62.4177456,131.943189 C59.2264673,130.253703 61.2533589,126.426775 61.2533589,126.426775 C63.7591553,121.705205 65.1785714,116.323157 65.1785714,110.612263 C65.1785714,91.8961443 49.9383419,76.7219344 31.140873,76.7219344 C28.1253032,76.7219344 25.202381,77.1113056 22.4185006,77.8439248 C22.4284857,77.8461781 18.7764537,78.7668678 17.8458934,75.3090057 C16.915333,71.8511436 20.561661,70.8725995 20.561661,70.8725995 Z" id="Rectangle-2" fill="#00E0C2"></path>
                    </g>
                </g>
            </g>
        </g>
    </g>
</svg>