<svg height="464pt" viewBox="0 0 464 464" width="464pt" xmlns="http://www.w3.org/2000/svg"><path d="m232 0h224c4.417969 0 8 3.582031 8 8v96c0 4.417969-3.582031 8-8 8h-224c-4.417969 0-8-3.582031-8-8v-96c0-4.417969 3.582031-8 8-8zm0 0" fill="#00ccb3"/><path d="m272 208v48h-272v-48l136-32zm0 0" fill="#ff9811"/><path d="m152 216c0 8.835938-7.164062 16-16 16s-16-7.164062-16-16 7.164062-16 16-16 16 7.164062 16 16zm0 0" fill="#ff6243"/><path d="m56 256h160v144h-160zm0 0" fill="#ffb655"/><path d="m24 256h32v144h-32zm0 0" fill="#ffa733"/><path d="m216 256h32v144h-32zm0 0" fill="#ffa733"/><path d="m256 400h-240v32h240zm0 0" fill="#ff9811"/><path d="m272 432h-272v32h272zm0 0" fill="#ee8700"/><path d="m368 56c0 13.253906-10.746094 24-24 24s-24-10.746094-24-24 10.746094-24 24-24 24 10.746094 24 24zm0 0" fill="#ffd422"/><path d="m464 40v-32c0-4.417969-3.582031-8-8-8h-32c0 22.089844 17.910156 40 40 40zm0 0" fill="#00b8a1"/><path d="m464 104v-32c-22.089844 0-40 17.910156-40 40h32c4.417969 0 8-3.582031 8-8zm0 0" fill="#00b8a1"/><path d="m264 0h-32c-4.417969 0-8 3.582031-8 8v32c22.089844 0 40-17.910156 40-40zm0 0" fill="#00b8a1"/><path d="m224 72v32c0 4.417969 3.582031 8 8 8h32c0-22.089844-17.910156-40-40-40zm0 0" fill="#00b8a1"/><path d="m24 256h32v16h-32zm0 0" fill="#f29010"/><path d="m216 256h32v16h-32zm0 0" fill="#f29010"/><path d="m56 256h160v16h-160zm0 0" fill="#ffa733"/><g fill="#ff6243"><path d="m144 320h-16c-4.417969 0-8-3.582031-8-8s3.582031-8 8-8h16c4.417969 0 8 3.582031 8 8h16c0-13.253906-10.746094-24-24-24v-8h-16v8c-13.253906 0-24 10.746094-24 24s10.746094 24 24 24h16c4.417969 0 8 3.582031 8 8s-3.582031 8-8 8h-16c-4.417969 0-8-3.582031-8-8h-16c0 13.253906 10.746094 24 24 24v8h16v-8c13.253906 0 24-10.746094 24-24s-10.746094-24-24-24zm0 0"/><path d="m296 360h16v16h-16zm0 0"/><path d="m328 360h16v16h-16zm0 0"/><path d="m360 360h16v16h-16zm0 0"/><path d="m360 328h16v16h-16zm0 0"/><path d="m360 296h16v16h-16zm0 0"/><path d="m360 264h16v16h-16zm0 0"/><path d="m360 232h16v16h-16zm0 0"/><path d="m360 200h16v16h-16zm0 0"/><path d="m360 168h16v16h-16zm0 0"/><path d="m360 136h16v16h-16zm0 0"/><path d="m184 40h16v16h-16zm0 0"/><path d="m152 40h16v16h-16zm0 0"/><path d="m120 40h16v16h-16zm0 0"/><path d="m120 72h16v16h-16zm0 0"/><path d="m120 104h16v16h-16zm0 0"/><path d="m120 136h16v16h-16zm0 0"/></g></svg>